<?xml version="1.0" encoding="utf-8"?>
<!-- Generator: Adobe Illustrator 25.4.1, SVG Export Plug-In . SVG Version: 6.00 Build 0)  -->
<svg version="1.1" id="Lager_1" xmlns="http://www.w3.org/2000/svg" xmlns:xlink="http://www.w3.org/1999/xlink" x="0px" y="0px"
	 viewBox="0 0 500 500" style="enable-background:new 0 0 500 500;" xml:space="preserve">
<style type="text/css">
	.st0{fill:#C81D18;}
	.st1{fill:#FFFFFF;}
	.st2{fill:#EEA735;}
	.st3{fill:#CE8724;}
</style>
<g id="Final">
	<rect x="0.27" y="-0.09" class="st0" width="500" height="500"/>
	<g id="Logo_00000026855216372097647690000004906259215790541479_">
		<g id="Pizzeria_00000031196843749049448160000005739513731282268544_">
			<path class="st1" d="M61.4,219.02c-1.5-11.28-2.43-22.93-2.78-34.96c-0.36-12.03-0.36-23.64,0-34.85
				c-0.64,0.36-1.22,0.68-1.71,0.96c-0.5,0.29-1.11,0.43-1.82,0.43c-0.5,0-0.96-0.21-1.39-0.64c-0.43-0.43-0.64-0.96-0.64-1.61
				v-0.32c0-0.07,0.03-0.18,0.11-0.32c0.57-0.64,1.27-1.75,2.09-3.32c0.82-1.57,1.69-3.12,2.62-4.66c0.93-1.53,1.82-2.89,2.68-4.07
				c0.86-1.18,1.61-1.77,2.25-1.77c0.64,0,1.12,0.16,1.45,0.48s0.59,0.7,0.8,1.12c0.21,0.43,0.44,0.91,0.7,1.45
				c0.25,0.54,0.62,0.95,1.12,1.23c2.14-1.28,4.5-2.39,7.07-3.32c2.57-0.93,5.16-1.57,7.76-1.93c2.6-0.36,5.14-0.41,7.6-0.16
				c2.46,0.25,4.69,0.86,6.69,1.82c2,0.96,3.71,2.34,5.14,4.12c1.43,1.79,2.36,4.03,2.78,6.75c-0.07,3.5-1.09,6.8-3.05,9.9
				c-1.96,3.1-4.39,5.93-7.28,8.46c-2.89,2.53-6.01,4.78-9.37,6.75c-3.36,1.96-6.44,3.66-9.26,5.09c-2.82,1.43-5.14,2.57-6.96,3.43
				s-2.66,1.36-2.52,1.5v38.44c0,0.57-0.25,0.96-0.75,1.18c-0.5,0.21-0.96,0.32-1.39,0.32C62.54,220.52,61.9,220.02,61.4,219.02z
				 M65.47,145.04c-0.21,2.07-0.48,4.34-0.8,6.8s-0.55,5-0.7,7.6c-0.14,2.61-0.13,5.16,0.05,7.66c0.18,2.5,0.66,4.75,1.45,6.75
				c3.07-1.36,6.28-2.87,9.64-4.55c3.35-1.68,6.57-3.59,9.64-5.73c3.07-2.14,5.84-4.51,8.3-7.12c2.46-2.6,4.3-5.51,5.51-8.73
				c0-1.71-0.63-3.18-1.87-4.39c-1.25-1.21-2.77-2.21-4.55-3c-1.79-0.78-3.62-1.34-5.51-1.66c-1.89-0.32-3.44-0.48-4.66-0.48
				c-0.71,0-1.87,0.2-3.48,0.59c-1.61,0.39-3.28,0.89-5.03,1.5c-1.75,0.61-3.39,1.34-4.93,2.19
				C66.99,143.32,65.97,144.18,65.47,145.04z"/>
			<path class="st2" d="M108.3,141.61c0-0.86,0.28-1.43,0.86-1.71c0.57-0.28,1.21-0.43,1.93-0.43c1.43,0,2.32,0.46,2.68,1.39
				c0.36,0.93,0.54,2,0.54,3.21c-0.43,0.79-0.96,1.34-1.61,1.66c-0.64,0.32-1.3,0.39-1.98,0.21c-0.68-0.18-1.25-0.62-1.71-1.34
				C108.53,143.89,108.3,142.89,108.3,141.61z M110.65,218.27c0-4.64-0.09-9.53-0.27-14.67c-0.18-5.14-0.36-10.33-0.54-15.58
				c-0.18-5.25-0.23-10.4-0.16-15.47c0.07-5.07,0.39-9.81,0.96-14.24c0.14-0.07,0.48-0.12,1.02-0.16c0.54-0.03,0.91-0.05,1.12-0.05
				c1,0,1.8,0.16,2.41,0.48c0.61,0.32,0.91,1.02,0.91,2.09c0,4.21-0.02,8.8-0.05,13.76c-0.04,4.96-0.07,9.99-0.11,15.1
				c-0.04,5.1-0.05,10.15-0.05,15.15c0,5,0.07,9.53,0.21,13.6c0.07,1.21-0.16,2.02-0.7,2.41s-1.2,0.59-1.98,0.59
				c-0.86,0-1.57-0.2-2.14-0.59C110.72,220.29,110.51,219.48,110.65,218.27z"/>
			<path class="st1" d="M138.06,221.48c-0.36-1.64-0.23-3.76,0.37-6.37c0.61-2.6,1.48-5.44,2.62-8.51c1.14-3.07,2.48-6.24,4.01-9.53
				c1.53-3.28,3.03-6.41,4.5-9.37c1.46-2.96,2.77-5.66,3.91-8.08c1.14-2.43,1.93-4.35,2.36-5.78c0-0.07,0.02-0.16,0.05-0.27
				c0.03-0.11,0.05-0.23,0.05-0.37c0-0.14-0.02-0.28-0.05-0.43c-0.04-0.14-0.05-0.25-0.05-0.32c-2,0.79-4.19,1.66-6.58,2.62
				c-2.39,0.96-4.8,1.89-7.23,2.78c-2.43,0.89-4.8,1.71-7.12,2.46c-2.32,0.75-4.44,1.34-6.37,1.77c-0.29,0.21-0.79,0.14-1.5-0.21
				c-0.71-0.36-1.39-0.84-2.03-1.45c-0.64-0.61-1.09-1.25-1.34-1.93c-0.25-0.68-0.02-1.3,0.7-1.87c2.36,0,5.14-0.48,8.35-1.45
				c3.21-0.96,6.48-2.09,9.8-3.37c3.32-1.28,6.57-2.55,9.74-3.8c3.17-1.25,5.98-2.12,8.4-2.62c2.36,0,3.53,1.18,3.53,3.53
				c0,2.57-0.45,5.09-1.34,7.55c-0.89,2.46-2,4.87-3.32,7.23c-1.32,2.36-2.75,4.68-4.28,6.96c-1.54,2.29-2.96,4.6-4.28,6.96
				c-1.32,2.36-2.45,4.75-3.37,7.17c-0.93,2.43-1.39,4.93-1.39,7.49v1.28l39.19-8.03h0.75c1,0,1.91,0.3,2.73,0.91
				c0.82,0.61,1.43,1.28,1.82,2.03c0.39,0.75,0.41,1.52,0.05,2.3c-0.36,0.79-1.25,1.36-2.68,1.71c-0.29,0-0.59,0.04-0.91,0.11
				c-0.32,0.07-1,0.2-2.03,0.37c-1.04,0.18-2.55,0.43-4.55,0.75c-2,0.32-4.8,0.8-8.4,1.45c-3.61,0.64-8.17,1.48-13.7,2.52
				C152.92,218.72,146.13,219.98,138.06,221.48z"/>
			<path class="st1" d="M205.83,221.48c-0.36-1.64-0.23-3.76,0.37-6.37c0.61-2.6,1.48-5.44,2.62-8.51c1.14-3.07,2.48-6.24,4.01-9.53
				c1.53-3.28,3.03-6.41,4.5-9.37c1.46-2.96,2.77-5.66,3.91-8.08c1.14-2.43,1.93-4.35,2.36-5.78c0-0.07,0.02-0.16,0.05-0.27
				c0.03-0.11,0.05-0.23,0.05-0.37c0-0.14-0.02-0.28-0.05-0.43c-0.04-0.14-0.05-0.25-0.05-0.32c-2,0.79-4.19,1.66-6.58,2.62
				c-2.39,0.96-4.8,1.89-7.23,2.78c-2.43,0.89-4.8,1.71-7.12,2.46c-2.32,0.75-4.44,1.34-6.37,1.77c-0.29,0.21-0.79,0.14-1.5-0.21
				c-0.71-0.36-1.39-0.84-2.03-1.45c-0.64-0.61-1.09-1.25-1.34-1.93c-0.25-0.68-0.02-1.3,0.7-1.87c2.36,0,5.14-0.48,8.35-1.45
				c3.21-0.96,6.48-2.09,9.8-3.37c3.32-1.28,6.57-2.55,9.74-3.8c3.17-1.25,5.98-2.12,8.4-2.62c2.36,0,3.53,1.18,3.53,3.53
				c0,2.57-0.45,5.09-1.34,7.55c-0.89,2.46-2,4.87-3.32,7.23c-1.32,2.36-2.75,4.68-4.28,6.96c-1.54,2.29-2.96,4.6-4.28,6.96
				c-1.32,2.36-2.45,4.75-3.37,7.17c-0.93,2.43-1.39,4.93-1.39,7.49v1.28l39.19-8.03h0.75c1,0,1.91,0.3,2.73,0.91
				c0.82,0.61,1.43,1.28,1.82,2.03c0.39,0.75,0.41,1.52,0.05,2.3c-0.36,0.79-1.25,1.36-2.68,1.71c-0.29,0-0.59,0.04-0.91,0.11
				c-0.32,0.07-1,0.2-2.03,0.37c-1.04,0.18-2.55,0.43-4.55,0.75c-2,0.32-4.8,0.8-8.4,1.45c-3.61,0.64-8.17,1.48-13.7,2.52
				C220.7,218.72,213.9,219.98,205.83,221.48z"/>
			<path class="st1" d="M262.15,197.28c-0.36,0.07-0.89,0.18-1.61,0.32c-0.71,0.14-1.46,0.18-2.25,0.11
				c-0.79-0.07-1.48-0.28-2.09-0.64c-0.61-0.36-0.91-0.96-0.91-1.82c0-0.5,0.11-0.86,0.32-1.07c0.21-0.21,0.57-0.54,1.07-0.96
				c1.57-1.28,2.91-2.94,4.01-4.98c1.11-2.03,2.12-4.21,3.05-6.53c0.93-2.32,1.91-4.64,2.94-6.96c1.03-2.32,2.23-4.41,3.59-6.26
				c1.35-1.85,3.03-3.35,5.03-4.5c2-1.14,4.46-1.68,7.39-1.61c1.21,0,2.57,0.29,4.07,0.86c1.5,0.57,2.89,1.34,4.18,2.3
				s2.36,2.12,3.21,3.48c0.86,1.36,1.28,2.86,1.28,4.5c0.36,0.57,0.02,1.39-1.02,2.46c-1.04,1.07-2.45,2.23-4.23,3.48
				c-1.79,1.25-3.8,2.53-6.05,3.85c-2.25,1.32-4.41,2.55-6.48,3.69c-2.07,1.14-3.89,2.14-5.46,3c-1.57,0.86-2.61,1.5-3.1,1.93
				c-0.36,0.71-0.64,1.54-0.86,2.46c-0.21,0.93-0.37,1.8-0.48,2.62c-0.11,0.82-0.18,1.57-0.21,2.25c-0.04,0.68-0.05,1.2-0.05,1.55
				c0,1.36-0.05,2.86-0.16,4.5c-0.11,1.64-0.04,3.2,0.21,4.66c0.25,1.46,0.84,2.68,1.77,3.64c0.93,0.96,2.5,1.45,4.71,1.45
				c2.36,0,4.57-0.59,6.64-1.77c2.07-1.18,4-2.62,5.78-4.34c1.78-1.71,3.41-3.57,4.87-5.57c1.46-2,2.78-3.87,3.96-5.62
				c1.18-1.75,2.23-3.19,3.16-4.34c0.93-1.14,1.71-1.71,2.36-1.71c0.71,0,1.48,0.13,2.3,0.37c0.82,0.25,1.23,0.84,1.23,1.77
				c0,1.28-0.52,2.82-1.55,4.6c-1.04,1.79-2.39,3.68-4.07,5.67c-1.68,2-3.61,3.98-5.78,5.94c-2.18,1.96-4.37,3.71-6.58,5.25
				c-2.21,1.54-4.39,2.78-6.53,3.75c-2.14,0.96-4.03,1.45-5.67,1.45c-3.21,0-5.64-0.78-7.28-2.36c-1.64-1.57-2.8-3.53-3.48-5.89
				c-0.68-2.36-1.04-4.87-1.07-7.55C262.27,202.05,262.22,199.57,262.15,197.28z M281.85,168.38c-1.22,0-2.5,0.59-3.85,1.77
				c-1.36,1.18-2.62,2.61-3.8,4.28c-1.18,1.68-2.14,3.39-2.89,5.14c-0.75,1.75-1.12,3.2-1.12,4.34c1.07,0,2.62-0.41,4.66-1.23
				c2.03-0.82,4.05-1.84,6.05-3.05c2-1.21,3.75-2.5,5.25-3.85c1.5-1.36,2.25-2.64,2.25-3.85c0-0.64-0.25-1.18-0.75-1.61
				c-0.5-0.43-1.09-0.78-1.77-1.07c-0.68-0.28-1.38-0.5-2.09-0.64C283.06,168.45,282.42,168.38,281.85,168.38z"/>
			<path class="st1" d="M309.69,168.8v-0.86c0-0.71,0.27-1.21,0.8-1.5c0.54-0.28,1.16-0.43,1.87-0.43c0.57,0,1.11,0.05,1.61,0.16
				c0.5,0.11,0.89,0.52,1.18,1.23c0.21,1.07,0.43,2.55,0.64,4.44c0.21,1.89,0.46,3.98,0.75,6.26c0.28,2.29,0.59,4.69,0.91,7.23
				c0.32,2.53,0.64,4.93,0.96,7.17c0.32,2.25,0.66,4.27,1.02,6.05c0.36,1.79,0.75,3.14,1.18,4.07c-0.21-6.85,0-12.79,0.64-17.83
				s1.87-9.14,3.69-12.31c1.82-3.18,4.32-5.39,7.49-6.64c3.17-1.25,7.15-1.52,11.94-0.8c2.21,0,3.32,1.18,3.32,3.53
				c0,0.93-0.61,1.55-1.82,1.87c-1.22,0.32-2.57,0.54-4.07,0.64c-1.5,0.11-2.96,0.23-4.39,0.37c-1.43,0.14-2.46,0.5-3.1,1.07
				c-2.57,1.43-4.37,3.64-5.41,6.64c-1.04,3-1.77,6.53-2.19,10.6s-0.73,8.51-0.91,13.33c-0.18,4.82-0.66,9.76-1.45,14.83
				c0,0.71-0.29,1.25-0.86,1.61c-0.57,0.36-1.27,0.54-2.09,0.54c-0.82,0-1.61-0.18-2.36-0.54c-0.75-0.36-1.34-0.89-1.77-1.61
				L309.69,168.8z"/>
			<path class="st2" d="M352.51,141.61c0-0.86,0.28-1.43,0.86-1.71c0.57-0.28,1.21-0.43,1.93-0.43c1.43,0,2.32,0.46,2.68,1.39
				c0.36,0.93,0.54,2,0.54,3.21c-0.43,0.79-0.96,1.34-1.61,1.66c-0.64,0.32-1.3,0.39-1.98,0.21c-0.68-0.18-1.25-0.62-1.71-1.34
				C352.74,143.89,352.51,142.89,352.51,141.61z M354.87,218.27c0-4.64-0.09-9.53-0.27-14.67c-0.18-5.14-0.36-10.33-0.54-15.58
				c-0.18-5.25-0.23-10.4-0.16-15.47c0.07-5.07,0.39-9.81,0.96-14.24c0.14-0.07,0.48-0.12,1.02-0.16c0.54-0.03,0.91-0.05,1.12-0.05
				c1,0,1.8,0.16,2.41,0.48c0.61,0.32,0.91,1.02,0.91,2.09c0,4.21-0.02,8.8-0.05,13.76c-0.04,4.96-0.07,9.99-0.11,15.1
				c-0.04,5.1-0.05,10.15-0.05,15.15c0,5,0.07,9.53,0.21,13.6c0.07,1.21-0.16,2.02-0.7,2.41c-0.54,0.39-1.2,0.59-1.98,0.59
				c-0.86,0-1.57-0.2-2.14-0.59C354.94,220.29,354.72,219.48,354.87,218.27z"/>
			<path class="st1" d="M398.12,217.63c-0.36-1.85-0.66-4.09-0.91-6.69c-0.25-2.6-0.52-5.25-0.8-7.92
				c-0.29-2.68-0.63-5.19-1.02-7.55c-0.39-2.36-0.98-4.28-1.77-5.78c-3.64,7.42-6.85,13.26-9.64,17.51
				c-2.78,4.25-5.23,7.28-7.33,9.1c-2.11,1.82-3.87,2.7-5.3,2.62c-1.43-0.07-2.61-0.71-3.53-1.93c-0.93-1.21-1.59-2.77-1.98-4.66
				c-0.39-1.89-0.66-3.66-0.8-5.3c0-1.57,0.36-3.78,1.07-6.64c0.71-2.85,1.68-5.98,2.89-9.37c1.21-3.39,2.66-6.83,4.34-10.33
				c1.68-3.5,3.48-6.67,5.41-9.53c1.93-2.85,3.92-5.21,6-7.07c2.07-1.85,4.14-2.78,6.21-2.78c3.07-0.5,5.33,0.16,6.8,1.98
				c1.46,1.82,1.73,4.87,0.8,9.15c0,4.71,0.2,8.74,0.59,12.1c0.39,3.36,0.82,6.57,1.28,9.64c0.46,3.07,0.89,6.28,1.28,9.64
				c0.39,3.36,0.59,7.39,0.59,12.1c0,0.86-0.09,1.59-0.27,2.19c-0.18,0.61-1.05,0.91-2.62,0.91c-0.21,0-0.48-0.18-0.8-0.54
				C398.28,218.13,398.12,217.84,398.12,217.63z M392.34,169.77c-0.79-1.14-1.86-1.25-3.21-0.32c-1.36,0.93-2.78,2.46-4.28,4.6
				c-1.5,2.14-3.04,4.71-4.6,7.71c-1.57,3-3.04,6.03-4.39,9.1c-1.36,3.07-2.53,5.98-3.53,8.73c-1,2.75-1.68,5.02-2.03,6.8
				c0,2.57,0.39,4.01,1.18,4.34c0.78,0.32,1.75-0.09,2.89-1.23c1.14-1.14,2.44-2.78,3.91-4.93c1.46-2.14,2.89-4.42,4.28-6.85
				c1.39-2.43,2.71-4.78,3.96-7.07c1.25-2.28,2.23-4.14,2.94-5.57c0.64-1.5,1.14-2.89,1.5-4.18c0.36-1.28,0.66-2.52,0.91-3.69
				c0.25-1.18,0.39-2.37,0.43-3.59C392.32,172.41,392.34,171.12,392.34,169.77z"/>
		</g>
		<g id="Venezia_00000127022608376485593320000004738962934487100589_">
			<g id="Venezia_00000040538192943140193750000016240245485885742769_">
				<path class="st1" d="M179.39,335.64c-0.36,0.07-0.89,0.18-1.61,0.32c-0.71,0.14-1.46,0.18-2.25,0.11
					c-0.79-0.07-1.48-0.28-2.09-0.64c-0.61-0.36-0.91-0.96-0.91-1.82c0-0.5,0.11-0.86,0.32-1.07c0.21-0.21,0.57-0.54,1.07-0.96
					c1.57-1.28,2.91-2.94,4.01-4.98c1.11-2.03,2.12-4.21,3.05-6.53c0.93-2.32,1.91-4.64,2.94-6.96c1.03-2.32,2.23-4.41,3.59-6.26
					c1.35-1.85,3.03-3.35,5.03-4.5c2-1.14,4.46-1.68,7.39-1.61c1.21,0,2.57,0.29,4.07,0.86c1.5,0.57,2.89,1.34,4.18,2.3
					c1.28,0.96,2.36,2.12,3.21,3.48c0.86,1.36,1.28,2.86,1.28,4.5c0.36,0.57,0.02,1.39-1.02,2.46c-1.04,1.07-2.45,2.23-4.23,3.48
					c-1.79,1.25-3.8,2.53-6.05,3.85c-2.25,1.32-4.41,2.55-6.48,3.69c-2.07,1.14-3.89,2.14-5.46,3c-1.57,0.86-2.61,1.5-3.1,1.93
					c-0.36,0.71-0.64,1.54-0.86,2.46c-0.21,0.93-0.37,1.8-0.48,2.62c-0.11,0.82-0.18,1.57-0.21,2.25c-0.04,0.68-0.05,1.2-0.05,1.55
					c0,1.36-0.05,2.86-0.16,4.5c-0.11,1.64-0.04,3.2,0.21,4.66c0.25,1.46,0.84,2.68,1.77,3.64c0.93,0.96,2.5,1.45,4.71,1.45
					c2.36,0,4.57-0.59,6.64-1.77c2.07-1.18,4-2.62,5.78-4.34c1.78-1.71,3.41-3.57,4.87-5.57c1.46-2,2.78-3.87,3.96-5.62
					c1.18-1.75,2.23-3.19,3.16-4.34c0.93-1.14,1.71-1.71,2.36-1.71c0.71,0,1.48,0.13,2.3,0.37c0.82,0.25,1.23,0.84,1.23,1.77
					c0,1.28-0.52,2.82-1.55,4.6c-1.04,1.79-2.39,3.68-4.07,5.67c-1.68,2-3.61,3.98-5.78,5.94c-2.18,1.96-4.37,3.71-6.58,5.25
					c-2.21,1.54-4.39,2.78-6.53,3.75s-4.03,1.45-5.67,1.45c-3.21,0-5.64-0.78-7.28-2.36c-1.64-1.57-2.8-3.53-3.48-5.89
					c-0.68-2.36-1.04-4.87-1.07-7.55C179.52,340.41,179.46,337.93,179.39,335.64z M199.09,306.73c-1.22,0-2.5,0.59-3.85,1.77
					c-1.36,1.18-2.62,2.61-3.8,4.28c-1.18,1.68-2.14,3.39-2.89,5.14c-0.75,1.75-1.12,3.2-1.12,4.34c1.07,0,2.62-0.41,4.66-1.23
					c2.03-0.82,4.05-1.84,6.05-3.05c2-1.21,3.75-2.5,5.25-3.85c1.5-1.36,2.25-2.64,2.25-3.85c0-0.64-0.25-1.18-0.75-1.61
					c-0.5-0.43-1.09-0.78-1.77-1.07c-0.68-0.28-1.38-0.5-2.09-0.64C200.31,306.81,199.67,306.73,199.09,306.73z"/>
				<path class="st1" d="M231.43,357.38c-0.79-9.64-1.48-19.29-2.09-28.96c-0.61-9.67-1.27-19.72-1.98-30.14
					c0-1.71,0.93-2.57,2.78-2.57H231c0.21,0,0.46,0.29,0.75,0.86c0.28,0.57,0.59,1.62,0.91,3.16c0.32,1.54,0.68,3.85,1.07,6.96
					c0.39,3.1,0.87,7.16,1.45,12.15c0.57,5,1.21,11.24,1.93,18.74c1.5-4.85,2.68-9.56,3.53-14.13c0.86-4.57,1.96-8.73,3.32-12.47
					c1.35-3.75,3.27-7.05,5.73-9.9c2.46-2.85,6.01-4.96,10.65-6.32c2.57,0.43,4.64,1.98,6.21,4.66c1.57,2.68,2.82,5.98,3.75,9.9
					c0.93,3.93,1.57,8.19,1.93,12.79c0.36,4.6,0.57,9.01,0.64,13.22c0.07,4.21,0.11,7.98,0.11,11.3s0.07,5.69,0.21,7.12
					c-0.21,0.57-0.54,1.07-0.96,1.5s-0.91,0.73-1.45,0.91c-0.54,0.18-1.05,0.21-1.55,0.11c-0.5-0.11-0.96-0.48-1.39-1.12
					c0-0.78-0.07-2.39-0.21-4.82c-0.14-2.43-0.32-5.26-0.54-8.51c-0.21-3.25-0.45-6.71-0.7-10.39c-0.25-3.68-0.47-7.14-0.64-10.39
					c-0.18-3.25-0.34-6.08-0.48-8.51c-0.14-2.43-0.25-4.03-0.32-4.82c-1.5-2.64-2.98-4.14-4.44-4.5c-1.46-0.36-2.93,0.11-4.39,1.39
					c-1.46,1.28-2.87,3.25-4.23,5.89c-1.36,2.64-2.64,5.62-3.85,8.94c-1.22,3.32-2.36,6.8-3.43,10.44c-1.07,3.64-2,7.16-2.78,10.55
					c-0.79,3.39-1.45,6.46-1.98,9.21c-0.54,2.75-0.88,4.87-1.02,6.37c-0.21,0.5-0.66,0.98-1.34,1.45c-0.68,0.46-1.39,0.8-2.14,1.02
					c-0.75,0.21-1.5,0.27-2.25,0.16C232.34,358.5,231.78,358.09,231.43,357.38z"/>
				<path class="st1" d="M283.03,335.64c-0.36,0.07-0.89,0.18-1.61,0.32c-0.71,0.14-1.46,0.18-2.25,0.11
					c-0.79-0.07-1.48-0.28-2.09-0.64c-0.61-0.36-0.91-0.96-0.91-1.82c0-0.5,0.11-0.86,0.32-1.07c0.21-0.21,0.57-0.54,1.07-0.96
					c1.57-1.28,2.91-2.94,4.01-4.98c1.11-2.03,2.12-4.21,3.05-6.53c0.93-2.32,1.91-4.64,2.94-6.96c1.03-2.32,2.23-4.41,3.59-6.26
					c1.35-1.85,3.03-3.35,5.03-4.5c2-1.14,4.46-1.68,7.39-1.61c1.21,0,2.57,0.29,4.07,0.86c1.5,0.57,2.89,1.34,4.18,2.3
					c1.28,0.96,2.36,2.12,3.21,3.48c0.86,1.36,1.28,2.86,1.28,4.5c0.36,0.57,0.02,1.39-1.02,2.46c-1.04,1.07-2.45,2.23-4.23,3.48
					c-1.79,1.25-3.8,2.53-6.05,3.85c-2.25,1.32-4.41,2.55-6.48,3.69c-2.07,1.14-3.89,2.14-5.46,3c-1.57,0.86-2.61,1.5-3.1,1.93
					c-0.36,0.71-0.64,1.54-0.86,2.46c-0.21,0.93-0.37,1.8-0.48,2.62c-0.11,0.82-0.18,1.57-0.21,2.25c-0.04,0.68-0.05,1.2-0.05,1.55
					c0,1.36-0.05,2.86-0.16,4.5c-0.11,1.64-0.04,3.2,0.21,4.66c0.25,1.46,0.84,2.68,1.77,3.64c0.93,0.96,2.5,1.45,4.71,1.45
					c2.36,0,4.57-0.59,6.64-1.77c2.07-1.18,4-2.62,5.78-4.34c1.78-1.71,3.41-3.57,4.87-5.57c1.46-2,2.78-3.87,3.96-5.62
					c1.18-1.75,2.23-3.19,3.16-4.34c0.93-1.14,1.71-1.71,2.36-1.71c0.71,0,1.48,0.13,2.3,0.37c0.82,0.25,1.23,0.84,1.23,1.77
					c0,1.28-0.52,2.82-1.55,4.6c-1.04,1.79-2.39,3.68-4.07,5.67c-1.68,2-3.61,3.98-5.78,5.94c-2.18,1.96-4.37,3.71-6.58,5.25
					c-2.21,1.54-4.39,2.78-6.53,3.75c-2.14,0.96-4.03,1.45-5.67,1.45c-3.21,0-5.64-0.78-7.28-2.36c-1.64-1.57-2.8-3.53-3.48-5.89
					c-0.68-2.36-1.04-4.87-1.07-7.55C283.16,340.41,283.1,337.93,283.03,335.64z M302.73,306.73c-1.22,0-2.5,0.59-3.85,1.77
					c-1.36,1.18-2.62,2.61-3.8,4.28c-1.18,1.68-2.14,3.39-2.89,5.14c-0.75,1.75-1.12,3.2-1.12,4.34c1.07,0,2.62-0.41,4.66-1.23
					c2.03-0.82,4.05-1.84,6.05-3.05c2-1.21,3.75-2.5,5.25-3.85c1.5-1.36,2.25-2.64,2.25-3.85c0-0.64-0.25-1.18-0.75-1.61
					c-0.5-0.43-1.09-0.78-1.77-1.07c-0.68-0.28-1.38-0.5-2.09-0.64C303.95,306.81,303.3,306.73,302.73,306.73z"/>
				<path class="st1" d="M345.13,359.84c-0.36-1.64-0.23-3.76,0.37-6.37c0.61-2.6,1.48-5.44,2.62-8.51
					c1.14-3.07,2.48-6.24,4.01-9.53c1.53-3.28,3.03-6.41,4.5-9.37c1.46-2.96,2.77-5.66,3.91-8.08c1.14-2.43,1.93-4.35,2.36-5.78
					c0-0.07,0.02-0.16,0.05-0.27c0.03-0.11,0.05-0.23,0.05-0.37c0-0.14-0.02-0.28-0.05-0.43c-0.04-0.14-0.05-0.25-0.05-0.32
					c-2,0.79-4.19,1.66-6.58,2.62c-2.39,0.96-4.8,1.89-7.23,2.78c-2.43,0.89-4.8,1.71-7.12,2.46c-2.32,0.75-4.44,1.34-6.37,1.77
					c-0.29,0.21-0.79,0.14-1.5-0.21c-0.71-0.36-1.39-0.84-2.03-1.45c-0.64-0.61-1.09-1.25-1.34-1.93c-0.25-0.68-0.02-1.3,0.7-1.87
					c2.36,0,5.14-0.48,8.35-1.45c3.21-0.96,6.48-2.09,9.8-3.37s6.57-2.55,9.74-3.8c3.17-1.25,5.98-2.12,8.4-2.62
					c2.36,0,3.53,1.18,3.53,3.53c0,2.57-0.45,5.09-1.34,7.55c-0.89,2.46-2,4.87-3.32,7.23c-1.32,2.36-2.75,4.68-4.28,6.96
					c-1.54,2.29-2.96,4.6-4.28,6.96c-1.32,2.36-2.45,4.75-3.37,7.17c-0.93,2.43-1.39,4.93-1.39,7.49v1.28l39.19-8.03h0.75
					c1,0,1.91,0.3,2.73,0.91c0.82,0.61,1.43,1.28,1.82,2.03c0.39,0.75,0.41,1.52,0.05,2.3c-0.36,0.79-1.25,1.36-2.68,1.71
					c-0.29,0-0.59,0.04-0.91,0.11c-0.32,0.07-1,0.2-2.03,0.37c-1.04,0.18-2.55,0.43-4.55,0.75c-2,0.32-4.8,0.8-8.4,1.45
					c-3.61,0.64-8.17,1.48-13.7,2.52C360,357.07,353.2,358.34,345.13,359.84z"/>
				<path class="st2" d="M397.7,279.97c0-0.86,0.28-1.43,0.86-1.71c0.57-0.28,1.21-0.43,1.93-0.43c1.43,0,2.32,0.46,2.68,1.39
					c0.36,0.93,0.54,2,0.54,3.21c-0.43,0.79-0.96,1.34-1.61,1.66s-1.3,0.39-1.98,0.21c-0.68-0.18-1.25-0.62-1.71-1.34
					C397.93,282.25,397.7,281.25,397.7,279.97z M400.06,356.63c0-4.64-0.09-9.53-0.27-14.67c-0.18-5.14-0.36-10.33-0.54-15.58
					c-0.18-5.25-0.23-10.4-0.16-15.47c0.07-5.07,0.39-9.81,0.96-14.24c0.14-0.07,0.48-0.12,1.02-0.16c0.54-0.03,0.91-0.05,1.12-0.05
					c1,0,1.8,0.16,2.41,0.48c0.61,0.32,0.91,1.02,0.91,2.09c0,4.21-0.02,8.8-0.05,13.76c-0.04,4.96-0.07,9.99-0.11,15.1
					c-0.04,5.1-0.05,10.15-0.05,15.15c0,5,0.07,9.53,0.21,13.6c0.07,1.21-0.16,2.02-0.7,2.41c-0.54,0.39-1.2,0.59-1.98,0.59
					c-0.86,0-1.57-0.2-2.14-0.59C400.13,358.64,399.91,357.84,400.06,356.63z"/>
				<path class="st1" d="M443.31,355.99c-0.36-1.85-0.66-4.09-0.91-6.69c-0.25-2.6-0.52-5.25-0.8-7.92
					c-0.29-2.68-0.63-5.19-1.02-7.55c-0.39-2.36-0.98-4.28-1.77-5.78c-3.64,7.42-6.85,13.26-9.64,17.51
					c-2.78,4.25-5.23,7.28-7.33,9.1c-2.11,1.82-3.87,2.7-5.3,2.62c-1.43-0.07-2.61-0.71-3.53-1.93c-0.93-1.21-1.59-2.77-1.98-4.66
					c-0.39-1.89-0.66-3.66-0.8-5.3c0-1.57,0.36-3.78,1.07-6.64c0.71-2.85,1.68-5.98,2.89-9.37c1.21-3.39,2.66-6.83,4.34-10.33
					c1.68-3.5,3.48-6.67,5.41-9.53c1.93-2.85,3.92-5.21,6-7.07c2.07-1.85,4.14-2.78,6.21-2.78c3.07-0.5,5.33,0.16,6.8,1.98
					c1.46,1.82,1.73,4.87,0.8,9.15c0,4.71,0.2,8.74,0.59,12.1c0.39,3.36,0.82,6.57,1.28,9.64c0.46,3.07,0.89,6.28,1.28,9.64
					c0.39,3.36,0.59,7.39,0.59,12.1c0,0.86-0.09,1.59-0.27,2.19c-0.18,0.61-1.05,0.91-2.62,0.91c-0.21,0-0.48-0.18-0.8-0.54
					C443.47,356.49,443.31,356.2,443.31,355.99z M437.53,308.13c-0.79-1.14-1.86-1.25-3.21-0.32c-1.36,0.93-2.78,2.46-4.28,4.6
					c-1.5,2.14-3.04,4.71-4.6,7.71c-1.57,3-3.04,6.03-4.39,9.1c-1.36,3.07-2.53,5.98-3.53,8.73c-1,2.75-1.68,5.02-2.03,6.8
					c0,2.57,0.39,4.01,1.18,4.34c0.78,0.32,1.75-0.09,2.89-1.23c1.14-1.14,2.44-2.78,3.91-4.93c1.46-2.14,2.89-4.42,4.28-6.85
					c1.39-2.43,2.71-4.78,3.96-7.07c1.25-2.28,2.23-4.14,2.94-5.57c0.64-1.5,1.14-2.89,1.5-4.18c0.36-1.28,0.66-2.52,0.91-3.69
					c0.25-1.18,0.39-2.37,0.43-3.59C437.51,310.77,437.53,309.48,437.53,308.13z"/>
			</g>
			<g id="V_Pizza_00000023241243776037855330000002424405852483140259_">
				<g id="Pizza_00000148638689598110473730000011937248578596022715_">
					<path class="st2" d="M185,265.07l-1,3.29l-0.13,0.47l-25.35,85.44l-3.07,10.4c-0.78,2.66-4.17,3.41-5.98,1.35l-7.71-8.71
						l-58.75-66.36l-0.03-0.03l-0.69-0.78L80.42,288c1.07-0.78,2.13-1.54,3.23-2.26c1.79-1.22,3.57-2.38,5.42-3.51
						c1.69-1.07,3.42-2.07,5.17-3.04c3.67-2.04,7.46-3.88,11.34-5.58c0.88-0.38,1.79-0.75,2.66-1.13c0.6-0.25,1.16-0.47,1.75-0.69
						c1.07-0.41,2.13-0.81,3.23-1.22c1.07-0.38,2.16-0.78,3.26-1.13c2.19-0.75,4.42-1.41,6.67-2.04c1.07-0.31,2.13-0.6,3.2-0.85
						c1.22-0.31,2.44-0.6,3.67-0.88c9.78-2.16,19.52-3.2,29.14-3.2c1.85,0,3.7,0.03,5.55,0.13c1.41,0.06,2.79,0.13,4.2,0.25
						c0.13,0,0.25,0,0.41,0.03c0.78,0.06,1.57,0.13,2.32,0.22c1.72,0.13,3.45,0.31,5.17,0.56c1.13,0.16,2.26,0.31,3.38,0.5
						c0.31,0.06,0.66,0.09,0.97,0.16c0.06,0,0.13,0.03,0.19,0.06C182.56,264.6,183.78,264.82,185,265.07z"/>
					<path class="st3" d="M185,265.07l-1,3.29c-17.36-3.35-35.65-3.26-53.98,0.81c-17.73,3.92-33.77,11.18-47.72,20.96L80.42,288
						c1.07-0.78,2.13-1.54,3.23-2.26c1.79-1.22,3.57-2.38,5.42-3.51c1.69-1.07,3.42-2.07,5.17-3.04c3.67-2.04,7.46-3.88,11.34-5.58
						c0.88-0.38,1.79-0.75,2.66-1.13c0.6-0.25,1.16-0.47,1.75-0.69c1.07-0.41,2.13-0.81,3.23-1.22c1.07-0.38,2.16-0.78,3.26-1.13
						c2.19-0.75,4.42-1.41,6.67-2.04c1.07-0.31,2.13-0.6,3.2-0.85c1.22-0.31,2.44-0.6,3.67-0.88c9.78-2.16,19.52-3.2,29.14-3.2
						c1.85,0,3.7,0.03,5.55,0.13c1.41,0.06,2.79,0.13,4.2,0.25c0.13,0,0.25,0,0.41,0.03c0.78,0.06,1.57,0.13,2.32,0.22
						c1.72,0.13,3.45,0.31,5.17,0.56c1.13,0.16,2.26,0.31,3.38,0.5c0.31,0.06,0.66,0.09,0.97,0.16c0.06,0,0.13,0.03,0.19,0.06
						C182.56,264.6,183.78,264.82,185,265.07z"/>
					<path class="st2" d="M193.36,262.16l-0.06,0.19c-0.7,2.36-3.1,3.81-5.51,3.28c-0.93-0.2-1.86-0.39-2.79-0.56
						c-17.67-3.54-36.31-3.51-54.99,0.63c-18.52,4.1-35.22,11.84-49.6,22.31c-0.81,0.6-1.62,1.2-2.41,1.81
						c-1.97,1.51-4.77,1.21-6.41-0.65h0c-1.79-2.02-1.53-5.13,0.56-6.84c0.63-0.51,1.26-1.02,1.9-1.53
						c15.32-12.12,33.52-21.02,53.86-25.53c20.4-4.54,40.79-4.14,59.87,0.41c0.72,0.16,1.43,0.33,2.14,0.51
						C192.57,256.82,194.13,259.55,193.36,262.16z"/>
				</g>
				<g id="Tomatoes_00000014633986818675882420000005218485983065014938_">
					<circle class="st0" cx="102.31" cy="290.13" r="7.31"/>
					<circle class="st0" cx="154.41" cy="303.97" r="7.31"/>
					<circle class="st0" cx="162.62" cy="276.32" r="7.31"/>
					<circle class="st0" cx="132.71" cy="314.85" r="7.31"/>
					<path class="st0" d="M140.86,292.9c-2.35,3.25-6.94,3.99-10.19,1.65c-3.28-2.37-4.02-6.96-1.67-10.21L140.86,292.9z"/>
					<path class="st0" d="M149.74,345.84c-3.99-0.37-6.96-3.95-6.59-7.94c0.37-4.02,3.95-7,7.95-6.62L149.74,345.84z"/>
				</g>
			</g>
		</g>
	</g>
</g>
</svg>
