<?xml version="1.0" standalone="no"?>
<!DOCTYPE svg PUBLIC "-//W3C//DTD SVG 20010904//EN"
 "http://www.w3.org/TR/2001/REC-SVG-20010904/DTD/svg10.dtd">
<svg version="1.0" xmlns="http://www.w3.org/2000/svg"
 width="515.000000pt" height="739.000000pt" viewBox="0 0 515.000000 739.000000"
 preserveAspectRatio="xMidYMid meet">

<g transform="translate(0.000000,739.000000) scale(0.100000,-0.100000)"
fill="#000000" stroke="none">
<path d="M0 3695 l0 -3685 2560 0 2560 0 0 1183 0 1182 -48 22 c-26 11 -50 19
-54 16 -16 -9 -7 -30 19 -42 18 -9 23 -15 15 -23 -7 -7 -20 -5 -44 10 -18 11
-49 23 -69 27 -39 7 -55 -4 -61 -45 -2 -17 -9 -25 -23 -25 -15 0 -22 10 -30
41 -10 41 -52 85 -107 113 -24 12 -30 12 -52 -3 -27 -17 -62 -21 -70 -8 -5 9
20 34 53 52 25 13 27 35 5 44 -28 11 -45 6 -80 -20 -24 -19 -32 -22 -28 -10 3
9 10 16 16 16 5 0 7 4 4 9 -3 4 3 16 14 26 18 16 18 19 3 42 -22 33 -50 42
-85 29 -35 -13 -48 -1 -52 44 -2 24 -13 42 -39 65 -20 18 -37 39 -37 47 0 21
-20 37 -39 31 -11 -4 -10 -1 4 10 11 9 26 17 33 17 20 0 9 23 -19 37 -24 13
-24 13 -1 13 12 0 22 4 22 9 0 5 9 13 20 16 22 7 28 45 8 45 -7 0 -24 9 -38
20 -16 12 -41 20 -67 20 -32 0 -43 4 -43 16 0 8 -4 13 -8 10 -9 -5 -77 16 -88
27 -4 4 4 7 19 7 14 0 29 5 32 11 5 7 14 4 26 -7 19 -17 28 -7 10 12 -6 5 -5
16 3 26 12 16 13 14 14 -14 1 -38 16 -49 48 -34 28 13 30 22 9 34 -19 10 -10
42 11 42 10 0 13 -7 9 -23 -4 -16 1 -29 19 -46 14 -13 23 -28 20 -33 -12 -19
17 -37 52 -31 31 5 34 3 34 -18 0 -31 10 -45 38 -53 27 -9 28 1 2 34 -11 14
-20 31 -20 38 0 18 50 15 57 -3 3 -9 15 -15 27 -13 15 2 20 -2 18 -13 -1 -9
15 -36 36 -60 30 -34 38 -51 36 -78 -2 -35 18 -95 36 -106 5 -3 10 -13 10 -22
0 -9 10 -42 21 -74 20 -54 26 -61 74 -83 57 -27 204 -70 213 -62 3 3 -1 12 -8
21 -11 13 -10 19 5 35 20 22 36 15 56 -22 8 -15 5 -20 -13 -27 -23 -9 -23 -9
5 -20 57 -22 67 -16 67 40 0 37 -3 48 -12 43 -8 -5 -8 -1 1 10 13 15 13 19 0
27 -19 12 -37 11 -41 -2 -2 -6 -20 -13 -41 -15 -34 -3 -36 -2 -24 16 6 11 20
20 29 20 10 0 18 5 18 10 0 14 -23 13 -38 -2 -8 -8 -15 -8 -27 2 -19 16 -19
30 0 30 18 0 20 16 2 27 -15 10 -47 58 -47 72 0 6 8 8 18 5 13 -4 12 -1 -5 14
-24 21 -30 42 -13 42 5 0 15 -9 22 -20 7 -11 20 -20 30 -20 9 0 31 -8 50 -17
18 -9 40 -19 48 -23 8 -4 18 -18 22 -31 4 -16 6 -10 5 21 -2 43 -4 45 -32 46
-35 0 -66 12 -80 31 -6 8 -21 19 -35 26 -14 7 -26 21 -28 32 -2 11 -14 28 -25
37 l-22 18 25 -1 c29 0 63 -22 52 -33 -4 -5 3 -6 15 -4 14 2 33 -8 54 -27 34
-31 31 -16 -4 23 l-20 22 24 0 c13 0 30 -4 38 -9 42 -27 41 -97 41 2248 l0
2231 -350 0 c-327 0 -350 -1 -350 -17 0 -10 16 -33 35 -51 41 -40 65 -124 46
-160 -7 -13 -9 -42 -5 -76 5 -39 3 -60 -6 -71 -20 -24 -49 -18 -68 16 -16 29
-19 30 -72 25 -30 -2 -63 -8 -73 -12 -10 -4 -43 -1 -73 6 -48 12 -59 11 -90
-3 -70 -34 -139 -15 -170 45 -9 17 -19 27 -22 23 -10 -10 -9 -29 3 -37 5 -4
-4 -8 -20 -8 -17 0 -36 -5 -42 -11 -18 -18 -47 -6 -53 21 -5 20 -14 26 -48 31
-23 3 -45 3 -47 0 -8 -7 -31 -11 -120 -17 -97 -7 -81 -7 -139 -5 -48 1 -48 1
-42 29 12 45 14 99 6 112 -11 17 -54 5 -79 -22 -11 -11 -18 -24 -16 -29 8 -12
-26 -41 -42 -35 -11 4 -13 1 -8 -14 4 -12 2 -20 -5 -20 -6 0 -9 -4 -6 -8 5 -9
-23 -26 -60 -37 -32 -9 -71 11 -88 44 -11 21 -29 34 -65 46 -27 9 -55 22 -61
30 -19 23 0 59 51 95 27 19 52 45 55 57 7 27 54 41 66 19 12 -21 42 -21 34 0
-3 9 -6 20 -6 25 0 5 -633 9 -1595 9 l-1595 0 0 -3685z m256 3447 c5 -4 11
-29 11 -57 l1 -50 -7 44 c-5 39 -8 42 -20 28 -7 -10 -19 -17 -26 -17 -13 0
-27 45 -17 55 8 7 45 6 58 -3z m74 -46 c0 -8 -4 -18 -10 -21 -20 -13 -9 -25
18 -19 21 4 24 3 12 -5 -8 -6 -23 -11 -34 -11 -14 0 -17 5 -12 25 5 19 2 25
-11 26 -16 0 -15 2 2 9 29 12 35 12 35 -4z m75 -16 c-9 -16 -12 -30 -8 -30 29
1 52 15 57 36 4 13 13 24 21 24 19 0 19 -19 0 -26 -8 -4 -15 -12 -15 -20 0
-17 12 -18 28 -2 9 9 12 9 12 0 0 -7 -3 -12 -7 -13 -51 -6 -113 -8 -113 -3 0
3 5 14 10 25 9 15 7 19 -7 20 -16 0 -16 1 2 9 33 14 36 11 20 -20z m125 18 c0
6 7 12 16 12 14 0 14 -1 0 -16 -9 -8 -16 -25 -17 -37 -1 -20 -2 -20 -9 3 -4
14 -8 32 -9 40 -1 13 0 13 9 0 6 -10 10 -11 10 -2z m94 -4 c3 -9 6 -25 6 -37
-1 -19 -3 -17 -14 8 -10 25 -13 26 -19 12 -4 -11 -3 -16 3 -12 6 3 10 1 10 -5
0 -12 -28 -25 -36 -17 -7 7 24 67 35 67 5 0 12 -7 15 -16z m4146 -14 c0 -6 30
-10 71 -10 l70 0 -3 -32 c-3 -31 -5 -33 -63 -44 l-60 -11 53 -2 c44 -1 52 -4
52 -20 0 -26 -18 -37 -26 -17 -7 17 -60 22 -66 7 -1 -5 -9 -11 -17 -13 -11 -2
-15 8 -16 37 -2 59 -13 95 -30 95 -8 0 -15 5 -15 10 0 6 11 10 25 10 14 0 25
-4 25 -10z m-4563 -32 c-3 -8 -6 -5 -6 6 -1 11 2 17 5 13 3 -3 4 -12 1 -19z
m4433 -55 l0 -46 -25 23 -25 24 22 23 c12 13 23 23 25 23 2 0 3 -21 3 -47z
m-4287 0 c2 -5 -5 -37 -16 -71 l-19 -64 -39 38 c-27 27 -35 40 -27 46 10 6 10
10 0 20 -9 9 -12 9 -12 0 0 -7 -4 -12 -10 -12 -23 0 -7 19 28 33 40 17 88 22
95 10z m92 -69 c-8 -9 -15 -24 -15 -35 0 -10 -4 -19 -10 -19 -5 0 -10 17 -9
38 0 27 2 32 8 18 7 -19 8 -19 14 3 3 13 10 20 16 16 8 -4 6 -11 -4 -21z m-55
7 c0 -5 -7 -14 -15 -21 -8 -7 -15 -20 -15 -29 -1 -14 -2 -14 -11 1 -7 12 -6
24 1 38 11 20 40 28 40 11z m130 0 c0 -5 -7 -14 -15 -21 -8 -7 -15 -20 -16
-29 0 -12 -2 -12 -6 -2 -5 11 -7 11 -14 0 -6 -10 -9 -6 -9 14 0 16 4 26 9 23
5 -3 11 1 15 9 6 16 36 21 36 6z m61 -24 c-18 -18 -13 -29 11 -25 16 2 25 12
29 33 l7 30 1 -30 2 -30 15 28 c17 31 34 36 34 8 0 -11 3 -28 7 -38 6 -17 6
-17 -10 -1 -10 9 -14 24 -11 35 5 15 4 15 -5 3 -6 -8 -8 -22 -6 -31 4 -13 -4
-16 -46 -18 -51 -1 -51 -1 -45 25 6 21 4 25 -8 21 -9 -4 -16 -4 -16 -1 0 2 10
8 23 13 25 10 36 -4 18 -22z m-181 -16 c0 -5 -7 -12 -16 -15 -14 -5 -15 -4 -4
9 14 17 20 19 20 6z m130 5 c0 -2 -8 -10 -17 -17 -16 -13 -17 -12 -4 4 13 16
21 21 21 13z m2200 -1776 c0 -5 -2 -10 -4 -10 -3 0 -8 5 -11 10 -3 6 -1 10 4
10 6 0 11 -4 11 -10z m118 -28 c3 -16 -2 -22 -17 -22 -24 0 -33 13 -25 35 9
23 38 14 42 -13z m-858 -8 c0 -8 -7 -14 -15 -14 -8 0 -15 9 -15 20 0 13 5 18
15 14 8 -4 15 -12 15 -20z m310 5 c0 -11 -4 -17 -10 -14 -5 3 -10 13 -10 21 0
8 5 14 10 14 6 0 10 -9 10 -21z m975 11 c-3 -5 0 -10 9 -10 8 0 17 -6 20 -12
3 -9 9 -7 20 6 14 17 16 18 16 3 0 -9 3 -16 8 -16 48 8 41 -31 -13 -70 -25
-18 -45 -36 -45 -40 0 -4 -11 -13 -25 -19 -14 -7 -25 -20 -25 -31 0 -10 -7
-22 -15 -25 -19 -7 -115 12 -132 26 -9 8 -24 -1 -53 -30 -22 -22 -55 -47 -73
-55 -17 -9 -38 -25 -45 -36 -7 -12 -19 -21 -26 -21 -8 0 -22 -7 -31 -16 -12
-12 -37 -16 -101 -17 -57 0 -88 -5 -95 -14 -7 -7 -20 -13 -30 -13 -11 0 -19
-7 -19 -15 0 -16 -34 -38 -43 -28 -4 3 -13 1 -20 -6 -17 -14 -107 -23 -107
-11 0 6 -15 1 -32 -10 -39 -24 -105 -26 -135 -5 -14 10 -24 12 -28 5 -3 -5 1
-10 9 -10 26 0 18 -17 -11 -24 -14 -4 -29 -3 -32 3 -4 6 -17 2 -32 -12 -26
-23 -40 -28 -74 -29 -28 0 -75 -19 -75 -29 0 -14 -27 -10 -40 6 -9 11 -16 12
-26 5 -7 -6 -41 -12 -76 -13 -35 -2 -68 -6 -75 -10 -6 -4 -18 -4 -27 -1 -9 3
-23 0 -32 -7 -12 -10 -15 -10 -12 1 2 7 -3 15 -11 17 -9 4 -11 0 -7 -13 5 -18
0 -19 -66 -17 -44 1 -74 7 -79 14 -4 8 -10 -2 -14 -27 -12 -66 -29 -84 -80
-84 l-45 0 0 -45 c0 -25 -4 -45 -9 -45 -9 0 -21 57 -21 102 0 19 -8 31 -27 40
-38 18 -41 43 -6 45 15 0 29 6 31 12 2 6 30 11 66 11 48 0 67 4 80 18 9 11 29
19 46 20 16 0 38 6 50 12 11 6 25 8 31 5 5 -4 21 0 34 9 13 9 30 13 38 10 8
-3 18 -1 21 5 5 7 15 7 32 1 21 -8 29 -6 42 9 19 21 91 41 151 41 23 0 41 4
41 9 0 4 16 11 36 14 20 3 44 13 53 20 9 8 36 17 61 20 49 6 108 24 127 39 7
5 40 11 75 14 106 6 210 29 263 58 17 9 39 16 50 16 11 0 43 11 70 25 28 13
56 25 64 25 8 0 22 6 30 14 15 12 42 20 171 47 30 6 77 21 103 32 38 16 47 25
43 40 -3 14 -1 16 8 8 15 -13 26 -4 26 21 0 10 3 17 8 16 4 -2 8 1 9 6 1 5 7
13 15 17 17 11 20 11 13 -1z m-887 -34 c3 -15 1 -16 -17 -6 -12 6 -19 16 -15
21 9 15 28 5 32 -15z m822 8 c0 -8 -5 -12 -10 -9 -6 4 -8 11 -5 16 9 14 15 11
15 -7z m-1878 -39 c43 -13 48 -12 57 3 9 16 10 16 16 0 4 -10 17 -18 31 -18
17 0 22 4 18 15 -4 9 0 15 8 15 20 0 59 -30 53 -40 -3 -5 0 -12 7 -17 22 -14
149 -63 162 -63 16 0 103 -48 111 -61 4 -5 -6 -20 -22 -34 -23 -20 -38 -24
-80 -23 -29 0 -50 5 -47 10 3 5 -6 7 -20 4 -17 -3 -24 -1 -20 6 5 7 -6 9 -30
6 -25 -3 -36 0 -36 9 0 7 -7 13 -16 13 -11 0 -14 -6 -10 -22 3 -13 3 -17 0
-10 -3 6 -21 12 -40 12 -19 0 -34 4 -34 9 0 5 -13 14 -30 20 -16 5 -30 17 -30
25 0 9 -6 13 -12 11 -7 -3 -25 6 -41 20 -15 14 -46 33 -70 41 -60 21 -117 63
-110 80 7 18 112 12 185 -11z m-859 -32 c7 -39 2 -40 -16 -4 -12 24 -13 31 -2
31 7 0 15 -12 18 -27z m2116 15 c-1 -16 -17 -55 -19 -48 -10 26 -7 60 6 60 8
0 14 -6 13 -12z m-649 -30 c0 -15 -28 -20 -49 -8 -12 6 -21 17 -21 24 0 11 7
12 35 3 19 -6 35 -14 35 -19z m-1357 -2 c3 3 14 1 24 -6 16 -10 16 -10 -4 -5
-12 3 -24 1 -28 -5 -3 -6 3 -10 14 -10 21 0 27 -11 14 -23 -7 -8 -63 41 -63
55 0 5 8 4 19 -1 10 -6 21 -8 24 -5z m195 -8 c14 -14 16 -48 2 -48 -10 0 -30
32 -30 49 0 14 13 14 28 -1z m1212 2 c0 -5 -6 -10 -12 -10 -7 -1 -2 -10 11
-21 19 -15 21 -23 12 -32 -17 -17 -66 40 -50 60 13 15 39 18 39 3z m-220 -31
c0 -5 -7 -9 -15 -9 -9 0 -15 9 -15 21 0 18 2 19 15 9 8 -7 15 -16 15 -21z
m-730 11 c0 -5 -4 -10 -9 -10 -6 0 -13 5 -16 10 -3 6 1 10 9 10 9 0 16 -4 16
-10z m-335 -21 c26 -16 35 -27 32 -40 -3 -10 1 -23 9 -30 19 -15 18 -29 -2
-29 -8 0 -12 -4 -9 -10 3 -5 -3 -10 -14 -10 -38 0 -51 -11 -51 -45 0 -18 6
-35 13 -38 6 -2 9 -8 5 -12 -9 -9 -48 54 -48 78 0 10 8 17 18 17 10 0 29 11
41 24 l22 24 -26 0 c-33 0 -56 19 -37 31 9 5 11 17 6 34 -8 33 -5 33 41 6z
m1125 -14 c14 -16 10 -18 -14 -9 -9 3 -16 10 -16 15 0 14 16 11 30 -6z m80
-17 c0 -13 -23 -5 -28 10 -2 7 2 10 12 6 9 -3 16 -11 16 -16z m-1370 -32 c15
-7 27 -23 30 -41 9 -40 32 -83 38 -67 6 19 22 14 22 -6 0 -30 37 -57 73 -54
25 2 39 -4 61 -27 31 -32 29 -46 -9 -53 -27 -6 -35 6 -10 16 20 7 19 35 0 42
-9 4 -26 -4 -41 -21 l-25 -27 -19 24 c-11 13 -19 26 -20 31 0 4 -13 6 -29 5
-17 -1 -38 5 -49 15 -10 9 -24 17 -30 17 -6 0 -15 6 -19 14 -4 8 -15 14 -23
13 -8 -1 -16 3 -17 8 -2 11 19 12 60 2 23 -6 27 -4 27 13 0 13 -9 22 -27 26
-16 3 -36 8 -45 11 -10 2 -18 0 -18 -6 0 -6 -7 -11 -15 -11 -8 0 -15 -5 -15
-11 0 -6 -15 -1 -34 10 -40 25 -56 27 -56 6 0 -8 -4 -15 -10 -15 -16 0 -12 32
7 52 21 23 40 23 48 -1 8 -26 45 -35 45 -11 0 10 -6 20 -12 23 -7 2 5 7 27 11
l40 8 -25 14 c-25 15 -24 15 10 8 19 -3 46 -11 60 -18z m416 -3 c-7 -7 -26 7
-26 19 0 6 6 6 15 -2 9 -7 13 -15 11 -17z m64 -12 c0 -5 12 -24 26 -41 15 -17
23 -34 20 -38 -7 -6 -75 66 -76 81 0 4 7 7 15 7 8 0 15 -4 15 -9z m286 -33
l29 -33 -32 29 c-18 17 -33 31 -33 33 0 8 8 1 36 -29z m574 22 c0 -5 -4 -10
-10 -10 -5 0 -10 5 -10 10 0 6 5 10 10 10 6 0 10 -4 10 -10z m318 -6 c29 -20
19 -36 -14 -24 -31 12 -37 12 -30 2 2 -4 -2 -15 -9 -25 -13 -18 -14 -17 -20 2
-3 12 -11 21 -17 21 -20 0 27 39 47 39 11 1 31 -6 43 -15z m209 10 c-3 -3 -12
-4 -19 -1 -8 3 -5 6 6 6 11 1 17 -2 13 -5z m-427 -54 c24 -24 25 -36 6 -43
-17 -7 -38 15 -34 34 2 7 -8 16 -22 20 l-25 7 28 1 c15 1 36 -8 47 -19z m-110
1 c0 -5 14 -11 30 -14 21 -5 30 -12 30 -27 0 -25 -12 -25 -67 -2 -43 17 -56
32 -28 32 8 0 15 5 15 10 0 6 5 10 10 10 6 0 10 -4 10 -9z m-930 -16 c7 -9 21
-13 31 -10 9 3 20 1 24 -5 3 -5 17 -10 31 -10 13 0 24 -5 24 -11 0 -6 -9 -8
-20 -4 -21 7 -28 -10 -7 -18 9 -4 9 -6 0 -6 -6 -1 -15 4 -18 9 -3 6 -11 10
-18 10 -8 0 -8 -3 1 -12 19 -19 14 -30 -8 -18 -11 6 -18 14 -16 18 6 11 -5 25
-31 40 -27 14 -30 7 -8 -15 9 -8 14 -20 12 -26 -5 -16 -27 -21 -27 -6 0 6 -7
17 -16 24 -14 9 -14 16 -5 33 14 26 33 28 51 7z m610 -6 c0 -11 -4 -17 -10
-14 -5 3 -10 13 -10 21 0 8 5 14 10 14 6 0 10 -9 10 -21z m757 -5 c-3 -3 -12
-4 -19 -1 -8 3 -5 6 6 6 11 1 17 -2 13 -5z m723 -4 c0 -5 -7 -10 -16 -10 -8 0
-12 5 -9 10 3 6 10 10 16 10 5 0 9 -4 9 -10z m-1755 -10 c3 -5 -1 -10 -9 -10
-8 0 -18 5 -21 10 -3 6 1 10 9 10 8 0 18 -4 21 -10z m-1184 -56 c11 -31 5 -42
-15 -25 -8 6 -12 21 -9 31 7 26 12 25 24 -6z m1377 14 c7 -7 12 -26 11 -42 l0
-31 -16 33 c-9 17 -21 32 -25 32 -5 0 -6 5 -3 10 8 13 18 13 33 -2z m174 -1
c15 -24 8 -37 -22 -37 -16 0 -30 4 -30 9 0 5 -2 15 -5 23 -7 17 47 21 57 5z
m-794 -16 c3 -8 -1 -12 -9 -9 -7 2 -15 10 -17 17 -3 8 1 12 9 9 7 -2 15 -10
17 -17z m712 4 c7 -9 10 -18 7 -21 -9 -9 -48 16 -42 27 9 13 21 11 35 -6z
m-625 -24 c10 -17 -11 -21 -31 -6 -18 14 -18 14 3 15 12 0 24 -4 28 -9z m165
-43 c0 -17 -19 -7 -35 18 l-17 27 26 -19 c14 -11 26 -22 26 -26z m-1008 14 c8
-8 9 -12 1 -12 -18 0 -43 12 -43 20 0 12 28 6 42 -8z m298 8 c0 -5 -12 -10
-27 -9 -25 0 -26 1 -8 9 27 12 35 12 35 0z m58 -4 c-2 -7 8 -22 21 -33 l25
-20 -34 5 c-28 4 -32 2 -27 -12 4 -9 3 -16 -2 -16 -15 0 -33 29 -27 45 3 8 5
18 5 22 0 6 21 18 39 22 2 1 2 -5 0 -13z m-338 -58 c0 -4 -9 -12 -21 -19 -17
-9 -25 -7 -46 13 l-25 23 24 5 c23 6 68 -9 68 -22z m844 -7 c-6 -6 -24 19 -24
34 1 6 7 1 15 -9 8 -11 12 -22 9 -25z m-266 -11 c7 -11 21 -20 32 -20 11 0 20
-4 20 -8 0 -4 -12 -8 -27 -7 -25 0 -29 -4 -34 -40 -5 -39 -6 -39 -13 -12 -5
17 -4 32 3 41 8 10 9 16 1 21 -11 7 -14 45 -2 45 4 0 13 -9 20 -20z m2217 -8
c-3 -3 -11 0 -18 7 -9 10 -8 11 6 5 10 -3 15 -9 12 -12z m-2386 -27 c6 3 19 1
28 -5 16 -9 15 -10 -4 -5 -14 4 -23 2 -23 -4 0 -14 -37 -14 -45 -1 -11 17 5
32 20 20 8 -7 19 -9 24 -5z m2011 10 c0 -3 -9 -14 -20 -25 -16 -16 -25 -18
-45 -10 -14 5 -25 8 -25 6 0 -3 -3 -11 -6 -19 -3 -10 4 -17 21 -21 25 -6 27
-10 21 -44 -13 -74 -7 -115 18 -125 10 -4 16 -10 13 -13 -10 -10 -77 -12 -83
-2 -3 4 -10 6 -15 2 -6 -4 -6 -11 2 -20 9 -10 9 -14 0 -14 -6 0 -14 7 -17 15
-4 8 -13 15 -21 15 -8 0 -12 -4 -8 -9 3 -5 -3 -12 -14 -16 -22 -7 -71 10 -71
25 0 5 -9 10 -19 10 -11 0 -26 6 -33 14 -18 17 -58 30 -58 18 0 -5 13 -15 29
-22 16 -6 32 -18 35 -26 3 -8 12 -11 23 -7 16 6 16 5 4 -10 -19 -24 -26 -22
-65 17 -34 34 -48 37 -96 18 -8 -3 -18 -6 -22 -7 -5 -2 -11 -4 -15 -5 -5 -1
-12 -2 -17 -1 -5 1 -4 -5 3 -13 10 -12 10 -19 -2 -36 -14 -21 -15 -21 -25 9
-10 28 -32 43 -32 22 0 -11 -49 -1 -57 12 -3 6 -1 7 6 3 6 -4 18 -1 26 8 13
13 13 15 -2 21 -10 3 -29 20 -43 38 -14 17 -20 28 -14 24 8 -4 14 7 18 33 10
62 74 91 122 55 23 -18 61 -19 66 -3 3 7 28 13 64 14 32 1 97 11 144 23 47 11
99 22 117 25 17 2 39 9 50 15 19 11 43 14 43 6z m-274 -16 c10 -17 -13 -36
-27 -22 -12 12 -4 33 11 33 5 0 12 -5 16 -11z m1239 -19 c-5 -8 -11 -8 -17 -2
-6 6 -7 16 -3 22 5 8 11 8 17 2 6 -6 7 -16 3 -22z m-3142 4 c7 -7 -2 -34 -12
-34 -4 0 -7 9 -8 20 -2 19 8 26 20 14z m911 -10 c4 -11 -4 -14 -34 -14 -43 0
-52 -13 -20 -30 11 -6 18 -15 15 -20 -3 -4 3 -7 12 -5 11 1 17 9 15 19 -2 13
3 17 20 15 13 -2 29 0 36 4 7 5 19 2 28 -7 8 -9 22 -16 30 -16 8 0 14 -7 14
-16 0 -8 -5 -12 -10 -9 -6 4 -29 8 -53 10 -23 2 -36 1 -29 -2 26 -10 -1 -23
-39 -17 -27 5 -39 3 -39 -5 0 -7 -4 -10 -9 -6 -5 3 -28 7 -52 9 -51 5 -70 28
-32 38 15 4 32 3 39 -2 8 -7 15 -5 24 5 10 12 8 16 -11 24 -13 4 -33 5 -45 1
-11 -5 -41 -6 -67 -3 -35 4 -47 2 -47 -7 0 -7 -3 -11 -6 -7 -4 3 -13 0 -21 -8
-19 -20 -103 -20 -103 -1 0 13 41 25 103 28 15 1 27 6 27 11 0 5 13 7 29 5 17
-2 28 -1 25 3 -4 8 40 12 143 16 36 1 53 -3 57 -13z m1331 4 c31 -91 49 -128
59 -128 7 0 24 30 38 68 15 41 31 68 41 70 17 3 9 -24 -52 -181 -20 -51 -42
-30 -83 78 -21 55 -38 101 -38 103 0 9 31 0 35 -10z m-825 -39 c0 -4 -18 -37
-41 -71 l-40 -63 40 -3 c63 -5 48 -22 -19 -22 -33 0 -60 4 -60 9 0 5 18 35 39
67 l40 59 -40 3 c-40 3 -56 27 -22 34 28 5 103 -4 103 -13z m-145 -74 c0 -69
-3 -85 -15 -85 -12 0 -15 16 -17 77 -2 80 1 93 20 93 8 0 12 -26 12 -85z m275
75 c0 -5 -18 -38 -40 -72 l-40 -63 40 -3 c63 -5 47 -22 -20 -22 -36 0 -60 4
-60 11 0 6 18 36 41 67 l40 57 -37 5 c-21 3 -39 11 -42 18 -3 9 13 12 57 12
34 0 61 -4 61 -10z m1005 -15 c14 -13 25 -36 25 -50 0 -24 -2 -25 -71 -25
l-71 0 14 -22 c19 -29 64 -35 89 -12 25 23 37 10 14 -16 -18 -20 -66 -27 -100
-14 -8 4 -23 20 -31 36 -44 85 64 170 131 103z m85 13 c0 -9 3 -9 12 0 19 19
66 14 88 -8 26 -26 30 -150 5 -150 -12 0 -15 14 -15 65 0 74 -17 93 -61 72
-21 -11 -24 -20 -27 -75 -2 -46 -7 -62 -17 -62 -12 0 -15 17 -15 85 0 69 3 85
15 85 8 0 15 -5 15 -12z m284 -9 c17 -14 26 -30 26 -50 l0 -29 -65 0 c-67 0
-77 -7 -49 -34 20 -20 58 -21 78 -1 15 15 36 20 36 8 0 -22 -37 -43 -75 -43
-50 0 -73 21 -82 73 -5 31 -1 40 25 67 36 35 69 38 106 9z m166 9 c0 -7 -18
-40 -40 -73 l-40 -60 40 -3 c60 -5 48 -22 -15 -22 -32 0 -55 4 -55 10 0 6 16
36 35 66 19 30 35 57 35 59 0 3 -16 5 -35 5 -24 0 -35 5 -35 15 0 12 13 15 55
15 37 0 55 -4 55 -12z m58 -76 c2 -68 0 -82 -13 -82 -12 0 -15 15 -15 86 0 64
3 85 13 82 8 -3 13 -32 15 -86z m152 78 c13 -7 21 -7 25 0 17 27 25 2 25 -75
0 -69 -3 -85 -15 -85 -8 0 -15 5 -15 12 0 9 -3 9 -12 0 -7 -7 -29 -12 -49 -12
-29 0 -43 6 -58 26 -57 73 20 176 99 134z m-2634 -51 c3 -6 17 -8 29 -5 13 3
26 2 30 -3 10 -17 -9 -19 -47 -6 -31 10 -38 10 -42 -1 -3 -8 -13 -14 -21 -14
-9 0 -13 -4 -10 -10 3 -5 14 -10 25 -10 13 0 17 -5 13 -20 -4 -16 -11 -19 -27
-14 -11 3 -26 12 -32 20 -6 8 -18 14 -27 14 -9 0 -18 4 -21 9 -3 4 6 6 19 3
18 -3 25 0 25 12 0 15 11 20 38 17 6 -1 12 3 12 9 0 13 27 13 36 -1z m-193
-15 c9 -3 17 -11 17 -18 0 -12 -13 -12 -127 -5 -48 3 -59 19 -14 19 17 0 33 5
36 10 6 9 46 7 88 -6z m-189 -29 c-3 -8 5 -12 21 -12 16 0 38 -12 53 -27 26
-26 26 -26 4 -26 -12 0 -22 5 -22 12 0 6 -3 8 -7 5 -3 -4 -11 -3 -17 2 -19 14
-46 21 -46 10 0 -5 12 -14 28 -20 41 -16 11 -27 -88 -34 -82 -6 -135 4 -152
29 -5 8 -8 7 -8 0 0 -12 -116 -11 -128 0 -3 3 -10 2 -16 -3 -7 -6 -29 -5 -56
0 -25 6 -69 13 -99 16 -42 4 -50 8 -36 16 14 8 15 11 4 18 -22 14 39 11 99 -5
29 -7 55 -10 57 -6 3 4 73 5 156 3 83 -3 154 -1 158 3 20 29 105 45 95 19z
m200 -38 c11 -2 22 -9 24 -16 3 -8 -4 -10 -20 -7 -12 3 -36 8 -52 11 -16 2
-34 9 -40 15 -9 9 30 8 88 -3z m1339 -80 c19 -19 18 -19 -4 -12 -27 9 -49 29
-49 46 0 12 16 2 53 -34z m-823 16 c-8 -3 -23 -13 -33 -21 -16 -14 -19 -14
-27 -2 -7 11 -4 17 13 22 28 8 69 9 47 1z m490 -73 c0 -5 -5 -10 -11 -10 -5 0
-7 5 -4 10 3 6 8 10 11 10 2 0 4 -4 4 -10z m514 -55 c8 -12 36 -16 114 -18 56
-1 102 1 102 4 0 4 17 6 38 4 20 -1 40 2 44 9 5 7 8 4 8 -7 0 -14 5 -17 23
-11 12 3 24 11 25 15 6 15 22 10 22 -7 0 -11 6 -14 20 -9 12 4 27 1 35 -5 11
-9 15 -9 15 -1 0 6 7 11 16 11 11 0 14 -5 10 -16 -3 -9 -6 -22 -6 -31 0 -9 -6
-13 -13 -10 -8 3 -20 1 -27 -3 -8 -5 -21 -5 -29 -1 -9 5 -25 5 -36 1 -11 -4
-28 -3 -37 2 -10 5 -18 5 -18 0 0 -10 -62 -8 -79 2 -6 4 -18 2 -26 -4 -12 -10
-18 -10 -29 -1 -11 9 -20 9 -34 2 -11 -6 -22 -7 -26 -4 -3 3 -6 -1 -6 -10 0
-9 -4 -17 -10 -17 -5 0 -10 10 -10 21 0 18 -3 19 -15 9 -8 -6 -18 -9 -24 -6
-5 4 -12 -2 -14 -11 -4 -14 -5 -13 -6 5 -1 25 -4 26 -31 12 -15 -8 -24 -6 -40
10 -20 20 -20 22 -3 50 19 34 31 37 47 15z m-411 -262 c-4 -11 -3 -14 5 -9 8
5 12 -3 12 -24 0 -29 -2 -30 -35 -28 -28 2 -35 6 -35 23 -1 20 -1 20 -12 0
-16 -30 -18 -31 -28 -15 -7 10 -10 11 -10 3 0 -7 -4 -13 -10 -13 -5 0 -10 16
-10 35 0 38 15 47 25 15 3 -11 10 -20 15 -20 5 0 12 9 15 20 8 25 22 26 28 3
4 -15 6 -15 12 5 4 12 13 22 21 22 8 0 11 -6 7 -17z m157 -9 c0 -12 4 -14 13
-7 24 20 47 11 47 -18 0 -27 -1 -27 -60 -28 -57 0 -60 1 -60 25 0 16 8 28 23
34 32 13 37 12 37 -6z m283 9 c-7 -2 -14 -19 -14 -36 l-2 -32 -4 30 c-3 16
-10 33 -16 37 -7 4 2 7 18 7 17 0 24 -3 18 -6z m227 -29 c0 -33 -2 -35 -27
-32 -38 4 -45 44 -11 57 36 15 38 13 38 -25z m190 1 c0 -19 -4 -35 -10 -35 -5
0 -10 16 -10 35 0 19 5 35 10 35 6 0 10 -16 10 -35z m30 0 c0 -19 -4 -35 -10
-35 -5 0 -10 16 -10 35 0 19 5 35 10 35 6 0 10 -16 10 -35z m75 0 c0 -39 -35
-47 -51 -12 -12 28 1 48 31 44 15 -1 20 -9 20 -32z m63 3 c-2 -25 -8 -33 -23
-33 -15 0 -21 8 -23 33 -3 29 -1 32 23 32 24 0 26 -3 23 -32z m162 13 c0 -11
-5 -23 -11 -27 -8 -4 -9 1 -4 16 6 19 4 21 -15 15 -15 -5 -20 -4 -16 4 12 19
46 13 46 -8z m30 -16 c0 -19 -2 -35 -4 -35 -2 0 -6 16 -8 35 -2 19 0 35 4 35
4 0 8 -16 8 -35z m80 0 c0 -33 -1 -34 -37 -33 -21 1 -32 3 -25 6 15 5 16 32 0
32 -19 0 25 29 45 30 13 0 17 -8 17 -35z m65 16 c8 -26 -4 -51 -25 -51 -10 0
-21 7 -24 16 -10 25 3 54 24 54 10 0 21 -8 25 -19z m-1287 -3 c15 -15 16 -48
2 -48 -5 0 -10 11 -10 25 0 14 -4 25 -10 25 -5 0 -10 -11 -10 -25 0 -14 -4
-25 -10 -25 -15 0 -12 47 3 53 19 8 22 8 35 -5z m212 -30 c0 -41 -22 -60 -43
-39 -9 9 -8 11 4 6 10 -4 20 -2 24 4 3 7 -2 11 -15 11 -11 0 -23 7 -26 15 -8
20 13 44 37 42 15 -1 19 -9 19 -39z m219 25 c6 -10 11 -13 11 -7 0 7 7 14 15
18 12 4 14 0 9 -22 -9 -35 -13 -39 -24 -22 -7 10 -10 11 -10 3 0 -7 -11 -13
-25 -13 -20 0 -25 5 -25 23 0 40 30 52 49 20z m86 7 c3 -6 -1 -7 -9 -4 -9 3
-16 1 -16 -5 0 -6 7 -11 15 -11 8 0 15 -7 15 -15 0 -8 -9 -15 -19 -15 -16 0
-19 6 -17 28 2 15 4 28 5 30 3 6 20 1 26 -8z m135 0 c8 -5 19 -5 25 -1 5 5 18
8 28 8 13 0 17 -9 17 -39 0 -41 -21 -61 -43 -39 -9 9 -8 11 4 6 10 -4 20 -2
24 4 6 11 -14 14 -72 11 -29 -1 -33 2 -33 23 0 37 19 47 50 27z m-377 -17 c-7
-2 -19 -2 -25 0 -7 3 -2 5 12 5 14 0 19 -2 13 -5z m740 0 c-7 -2 -19 -2 -25 0
-7 3 -2 5 12 5 14 0 19 -2 13 -5z m92 -23 c17 -7 14 -9 -13 -9 -20 -1 -31 3
-27 9 7 12 13 12 40 0z m-1025 -219 l0 -39 -56 0 c-61 1 -79 17 -51 45 13 13
19 14 31 3 13 -10 19 -10 31 0 8 6 19 9 25 5 5 -3 10 1 10 9 0 9 2 16 5 16 3
0 5 -18 5 -39z m460 12 c0 -11 4 -13 13 -6 24 20 47 11 47 -18 0 -27 -1 -27
-60 -28 -58 0 -60 1 -60 25 0 17 7 28 20 31 11 3 20 10 20 15 0 5 5 6 10 3 6
-3 10 -13 10 -22z m-632 10 c-10 -2 -18 -9 -18 -14 0 -5 8 -10 18 -10 15 -1
15 -2 0 -6 -9 -2 -19 -12 -21 -21 -3 -9 -5 0 -6 21 -1 32 2 37 22 36 16 -1 18
-2 5 -6z m455 -55 c8 -5 6 -8 -5 -8 -14 0 -18 8 -17 38 2 34 2 34 6 7 3 -16
10 -33 16 -37z m61 45 c4 -10 10 -13 14 -8 4 6 14 11 22 13 12 3 13 1 3 -9 -7
-7 -13 -22 -13 -33 0 -17 -2 -18 -10 -6 -6 10 -10 11 -10 3 0 -7 -11 -13 -25
-13 -18 0 -25 5 -25 19 0 47 31 70 44 34z m306 -18 c0 -19 -4 -35 -10 -35 -5
0 -10 16 -10 35 0 19 5 35 10 35 6 0 10 -16 10 -35z m30 25 c0 -5 7 -10 15
-10 8 0 15 5 15 10 0 14 33 13 48 -2 9 -9 12 -9 12 1 0 7 9 11 23 9 17 -2 22
-10 22 -33 0 -23 -5 -31 -22 -33 -17 -2 -23 2 -23 15 -1 17 -1 17 -11 1 -14
-24 -45 -23 -52 2 -3 11 -10 20 -16 20 -15 0 -14 -27 2 -33 6 -3 2 -6 -10 -6
-20 -1 -23 4 -23 34 0 19 5 35 10 35 6 0 10 -4 10 -10z m302 -14 c3 -14 1 -31
-3 -38 -7 -10 -9 -10 -9 0 0 6 -9 12 -20 12 -20 0 -20 1 -3 25 23 31 30 31 35
1z m86 12 c9 -9 12 -9 12 1 0 7 9 11 23 9 17 -2 22 -10 22 -33 0 -23 -5 -31
-22 -33 -17 -2 -23 2 -23 15 -1 17 -1 17 -11 1 -12 -22 -49 -24 -49 -3 0 7 -8
19 -17 24 -17 10 -17 10 0 11 9 0 17 5 17 10 0 14 33 13 48 -2z m-1196 -10
c-5 -7 -12 -22 -15 -33 -3 -13 -5 -9 -6 13 -1 23 3 32 15 32 12 0 14 -3 6 -12z
m198 -20 c0 -23 -4 -28 -25 -28 -29 0 -43 24 -25 44 20 25 50 15 50 -16z m68
-7 c-4 -40 -30 -63 -50 -42 -11 11 -9 12 10 6 12 -3 22 -2 22 3 0 5 -9 12 -20
15 -11 3 -20 14 -20 24 0 26 8 33 37 31 21 -2 24 -7 21 -37z m452 -3 c0 -41
-22 -60 -43 -39 -9 9 -8 11 4 6 10 -4 20 -2 24 4 3 7 -2 11 -15 11 -11 0 -23
7 -26 15 -8 20 13 44 37 42 15 -1 19 -9 19 -39z m-387 15 c-7 -2 -19 -2 -25 0
-7 3 -2 5 12 5 14 0 19 -2 13 -5z m680 0 c-7 -2 -19 -2 -25 0 -7 3 -2 5 12 5
14 0 19 -2 13 -5z m1885 -116 c20 -21 20 -25 7 -43 -11 -15 -15 -16 -15 -4 -1
8 -5 5 -11 -9 -8 -19 -12 -21 -24 -11 -19 16 -19 50 0 50 18 0 19 12 3 28 -9
9 -9 12 3 12 9 0 25 -10 37 -23z m-133 3 c3 -5 1 -10 -4 -10 -6 0 -11 5 -11
10 0 6 2 10 4 10 3 0 8 -4 11 -10z m-2705 -110 c0 -5 -7 -7 -15 -4 -8 4 -15 1
-15 -5 0 -6 7 -11 15 -11 8 0 15 -9 15 -20 0 -22 -34 -28 -46 -9 -4 8 0 9 15
4 12 -4 21 -2 21 4 0 6 -6 11 -14 11 -15 0 -28 24 -19 34 10 10 43 7 43 -4z
m55 0 c-3 -5 -1 -10 5 -10 6 0 10 -10 8 -22 -3 -25 -34 -36 -51 -19 -13 13 10
61 30 61 8 0 11 -4 8 -10z m145 -26 c0 -33 -2 -35 -27 -32 -38 4 -45 44 -11
57 36 15 38 13 38 -25z m370 1 c0 -19 -2 -35 -4 -35 -2 0 -6 16 -8 35 -2 19 0
35 4 35 4 0 8 -16 8 -35z m30 0 c0 -19 -2 -35 -4 -35 -2 0 -6 16 -8 35 -2 19
0 35 4 35 4 0 8 -16 8 -35z m80 -1 c0 -31 -3 -35 -22 -32 -39 5 -37 68 2 68
16 0 20 -6 20 -36z m60 0 c0 -31 -3 -35 -22 -32 -39 5 -37 68 2 68 16 0 20 -6
20 -36z m165 26 c3 -5 1 -18 -4 -29 -8 -14 -8 -21 2 -24 6 -3 -1 -6 -17 -6
l-29 -1 21 23 c27 29 28 41 2 34 -11 -3 -20 -1 -20 4 0 12 37 12 45 -1z m71
-5 c9 -8 11 -15 6 -15 -5 0 -12 -9 -15 -21 -9 -33 -41 -20 -45 19 -3 27 0 32
18 32 12 0 28 -7 36 -15z m72 -17 c-2 -25 -8 -33 -23 -33 -15 0 -21 8 -23 33
-3 29 -1 32 23 32 24 0 26 -3 23 -32z m60 0 c-2 -25 -8 -33 -23 -33 -15 0 -21
8 -23 33 -3 29 -1 32 23 32 24 0 26 -3 23 -32z m-981 -13 c2 -25 1 -26 -5 -7
-4 13 -11 23 -17 23 -5 0 -13 -10 -17 -23 -5 -20 -6 -19 -7 8 -1 26 3 31 22
30 17 -1 22 -8 24 -31z m133 25 c8 -5 19 -5 25 -1 5 5 18 8 28 8 13 0 17 -9
17 -39 0 -41 -21 -61 -43 -39 -9 9 -8 11 4 6 10 -4 20 -2 24 4 6 11 -14 14
-72 11 -29 -1 -33 2 -33 23 0 37 19 47 50 27z m140 -22 c0 -23 -4 -28 -25 -28
-29 0 -43 24 -25 44 20 25 50 15 50 -16z m31 18 c-5 -6 -11 -20 -14 -31 -3
-14 -5 -10 -6 11 -1 21 4 31 14 31 9 0 11 -4 6 -11z m72 -13 c-7 -2 -19 -2
-25 0 -7 3 -2 5 12 5 14 0 19 -2 13 -5z m310 0 c-7 -2 -19 -2 -25 0 -7 3 -2 5
12 5 14 0 19 -2 13 -5z m2187 -23 c0 -5 -4 -10 -10 -10 -5 0 -10 5 -10 10 0 6
5 10 10 10 6 0 10 -4 10 -10z m-610 -51 c0 -4 -7 -6 -15 -3 -8 4 -15 10 -15
15 0 4 7 6 15 3 8 -4 15 -10 15 -15z m520 1 c0 -5 -7 -7 -15 -4 -8 4 -15 8
-15 10 0 2 7 4 15 4 8 0 15 -4 15 -10z m-490 -41 c0 -5 -4 -9 -10 -9 -25 0 -6
-19 22 -22 23 -2 36 -11 49 -33 22 -38 23 -55 3 -55 -8 0 -13 4 -9 9 3 6 -4
15 -15 21 -11 6 -20 18 -20 28 0 12 -2 14 -8 4 -7 -10 -15 -9 -40 3 -40 20
-49 35 -23 35 12 0 20 3 20 8 -4 21 3 31 16 26 8 -4 15 -10 15 -15z m290 11
c0 -6 13 -8 30 -5 28 5 30 4 21 -14 -8 -14 -7 -22 4 -31 13 -11 22 -70 11 -70
-22 0 -36 17 -36 41 0 22 -7 32 -25 41 -24 11 -36 48 -15 48 6 0 10 -5 10 -10z
m-407 -83 c-4 -6 -12 -3 -20 8 -20 28 -16 41 7 20 11 -10 17 -22 13 -28z m404
1 c6 -7 13 -22 17 -32 6 -16 4 -17 -9 -6 -21 18 -38 50 -27 50 5 0 14 -6 19
-12z m-667 -12 c0 -3 -13 -14 -30 -26 -16 -12 -30 -18 -30 -13 0 5 12 16 28
25 30 19 32 20 32 14z m636 -50 c39 -37 55 -59 51 -70 -4 -9 -11 -16 -17 -16
-12 0 -9 22 5 33 6 5 0 7 -12 4 -18 -4 -23 -1 -23 14 0 10 -4 19 -9 19 -13 0
-71 50 -71 61 0 20 22 7 76 -45z m-222 -22 c4 -10 1 -14 -6 -12 -15 5 -23 28
-10 28 5 0 13 -7 16 -16z m-509 -21 c-4 -16 -7 -36 -7 -46 0 -10 -6 -21 -14
-24 -8 -3 -14 -11 -14 -19 0 -8 -4 -14 -9 -14 -5 0 -12 -11 -15 -25 -4 -14
-23 -43 -42 -65 -20 -22 -32 -40 -28 -40 5 0 0 -7 -10 -15 -15 -12 -19 -26
-18 -62 1 -27 -4 -60 -13 -77 -20 -37 -19 -46 4 -46 23 0 37 -16 47 -55 4 -16
16 -38 26 -49 10 -11 16 -26 14 -32 -2 -6 -1 -15 4 -20 5 -5 11 -20 13 -34 13
-69 68 -190 87 -190 4 0 16 -17 25 -37 10 -21 33 -54 52 -73 18 -19 33 -38 33
-43 0 -4 25 -33 56 -65 30 -31 50 -58 44 -60 -22 -8 -118 68 -231 180 -116
114 -133 138 -185 268 -50 125 -56 145 -61 205 -6 69 24 163 75 238 16 23 37
58 47 77 25 49 107 150 122 150 3 0 2 -12 -2 -27z m821 -30 c-10 -10 -19 5
-10 18 6 11 8 11 12 0 2 -7 1 -15 -2 -18z m239 -43 c3 -5 1 -10 -4 -10 -6 0
-11 5 -11 10 0 6 2 10 4 10 3 0 8 -4 11 -10z m-32 -46 c-3 -8 -12 -14 -20 -14
-12 0 -13 3 -4 14 6 7 9 22 5 32 -5 18 -5 18 9 1 9 -11 13 -25 10 -33z m-2568
-14 c3 -11 10 -20 15 -20 5 0 12 9 15 20 10 32 25 23 25 -15 0 -19 -4 -35 -10
-35 -5 0 -10 6 -10 13 0 8 -4 7 -10 -3 -9 -13 -11 -13 -20 0 -6 10 -10 11 -10
3 0 -7 -4 -13 -10 -13 -5 0 -10 16 -10 35 0 38 15 47 25 15z m103 13 c-10 -2
-18 -9 -18 -14 0 -5 8 -10 18 -10 16 -1 16 -2 0 -6 -10 -2 -18 -8 -18 -13 0
-5 8 -11 18 -13 13 -4 11 -5 -5 -6 -20 -1 -23 4 -23 34 0 30 3 35 23 34 16 -1
18 -2 5 -6z m64 -15 l12 -23 7 25 c6 22 7 20 8 -12 1 -42 -5 -47 -25 -20 -13
16 -13 16 -14 0 0 -34 -20 -18 -20 17 0 40 14 45 32 13z m68 11 c0 -8 5 -8 15
1 18 15 19 11 1 -30 -11 -26 -14 -29 -18 -14 -3 11 -9 27 -13 37 -4 10 -3 17
4 17 6 0 11 -5 11 -11z m2280 -263 c0 -2 -9 -6 -20 -9 -11 -3 -20 -1 -20 4 0
5 9 9 20 9 11 0 20 -2 20 -4z m24 -85 c3 -5 -1 -14 -9 -21 -10 -9 -15 -9 -15
-1 0 6 -12 12 -27 12 l-28 1 30 8 c43 11 43 11 49 1z m21 -301 c-3 -5 -17 -10
-31 -10 -13 0 -24 5 -24 10 0 6 14 10 31 10 17 0 28 -4 24 -10z m-1080 -706
c33 -21 23 -34 -25 -34 -43 0 -58 13 -40 35 16 19 35 19 65 -1z m398 -61 c-7
-2 -19 -2 -25 0 -7 3 -2 5 12 5 14 0 19 -2 13 -5z"/>
<path d="M210 7119 c0 -18 2 -19 15 -9 8 7 15 16 15 21 0 5 -7 9 -15 9 -9 0
-15 -9 -15 -21z"/>
<path d="M320 6970 c0 -5 5 -10 10 -10 6 0 10 5 10 10 0 6 -4 10 -10 10 -5 0
-10 -4 -10 -10z"/>
<path d="M280 6920 c0 -5 5 -10 10 -10 6 0 10 5 10 10 0 6 -4 10 -10 10 -5 0
-10 -4 -10 -10z"/>
<path d="M1458 4463 c-4 -31 -2 -33 28 -33 37 0 55 18 48 46 -4 16 -13 20 -39
20 -30 -1 -34 -4 -37 -33z"/>
<path d="M492 4848 c6 -18 28 -21 28 -4 0 9 -7 16 -16 16 -9 0 -14 -5 -12 -12z"/>
<path d="M2287 4483 c-4 -3 -7 -11 -7 -17 0 -6 5 -5 12 2 6 6 9 14 7 17 -3 3
-9 2 -12 -2z"/>
<path d="M1979 4456 c-42 -21 -34 -34 16 -23 25 6 45 14 45 18 0 13 -38 17
-61 5z"/>
<path d="M2367 4449 c7 -7 15 -10 18 -7 3 3 -2 9 -12 12 -14 6 -15 5 -6 -5z"/>
<path d="M1984 4368 c1 -17 8 -24 26 -25 23 -2 23 -2 5 6 -11 6 -14 10 -6 10
11 1 11 4 1 16 -18 21 -27 19 -26 -7z"/>
<path d="M2080 4361 c0 -5 7 -11 15 -15 9 -3 15 0 15 9 0 8 -7 15 -15 15 -8 0
-15 -4 -15 -9z"/>
<path d="M2806 4438 l-17 -23 52 -3 c58 -4 68 2 53 26 -17 27 -69 27 -88 0z"/>
<path d="M3192 4454 c-40 -28 -28 -44 33 -44 59 0 67 8 35 40 -24 24 -38 25
-68 4z"/>
<path d="M3590 4457 c-31 -16 -40 -76 -15 -101 21 -20 59 -21 79 0 24 24 20
80 -6 98 -27 19 -26 19 -58 3z"/>
<path d="M2314 4125 c-7 -18 3 -35 21 -35 15 0 24 19 18 38 -6 17 -32 15 -39
-3z"/>
<path d="M2397 4114 c-8 -8 1 -24 14 -24 5 0 9 7 9 15 0 15 -12 20 -23 9z"/>
<path d="M2462 4108 c6 -18 28 -21 28 -4 0 9 -7 16 -16 16 -9 0 -14 -5 -12
-12z"/>
<path d="M2590 4105 c0 -8 5 -15 10 -15 6 0 10 7 10 15 0 8 -4 15 -10 15 -5 0
-10 -7 -10 -15z"/>
<path d="M2630 4105 c0 -8 5 -15 10 -15 6 0 10 7 10 15 0 8 -4 15 -10 15 -5 0
-10 -7 -10 -15z"/>
<path d="M2682 4108 c6 -18 28 -21 28 -4 0 9 -7 16 -16 16 -9 0 -14 -5 -12
-12z"/>
<path d="M1920 3861 c0 -12 6 -21 16 -21 9 0 14 7 12 17 -5 25 -28 28 -28 4z"/>
<path d="M2056 3873 c-12 -12 -6 -33 9 -33 8 0 15 6 15 14 0 17 -14 28 -24 19z"/>
<path d="M2120 3861 c0 -12 6 -21 16 -21 9 0 14 7 12 17 -5 25 -28 28 -28 4z"/>
<path d="M2567 3873 c-13 -12 -7 -33 8 -33 8 0 15 9 15 20 0 20 -11 26 -23 13z"/>
<path d="M2870 3865 c0 -17 5 -25 13 -22 6 2 12 12 12 22 0 10 -6 20 -12 23
-8 2 -13 -6 -13 -23z"/>
<path d="M2930 3865 c0 -16 6 -25 15 -25 9 0 15 9 15 25 0 16 -6 25 -15 25 -9
0 -15 -9 -15 -25z"/>
<path d="M3200 3865 c0 -16 6 -25 15 -25 9 0 15 9 15 25 0 16 -6 25 -15 25 -9
0 -15 -9 -15 -25z"/>
<path d="M3266 3881 c-8 -12 3 -41 15 -41 5 0 9 11 9 25 0 25 -14 34 -24 16z"/>
<path d="M2185 3871 c-8 -15 3 -31 21 -31 9 0 14 7 12 17 -4 20 -24 28 -33 14z"/>
<path d="M2416 3873 c-12 -12 -6 -33 9 -33 8 0 15 6 15 14 0 17 -14 28 -24 19z"/>
<path d="M2636 3873 c-12 -12 -6 -33 9 -33 8 0 15 6 15 14 0 17 -14 28 -24 19z"/>
<path d="M2700 3861 c0 -12 6 -21 16 -21 9 0 14 7 12 17 -5 25 -28 28 -28 4z"/>
<path d="M1995 3620 c-3 -5 3 -10 15 -10 12 0 18 5 15 10 -3 6 -10 10 -15 10
-5 0 -12 -4 -15 -10z"/>
<path d="M2060 3611 c0 -12 6 -21 16 -21 9 0 14 7 12 17 -5 25 -28 28 -28 4z"/>
<path d="M2516 3623 c-12 -12 -6 -33 9 -33 8 0 15 6 15 14 0 17 -14 28 -24 19z"/>
<path d="M2576 3615 c-3 -9 1 -18 10 -22 19 -7 28 2 21 22 -8 19 -23 19 -31 0z"/>
<path d="M2416 3623 c-12 -12 -6 -33 9 -33 8 0 15 6 15 14 0 17 -14 28 -24 19z"/>
<path d="M2820 3615 c0 -17 5 -25 13 -22 6 2 12 12 12 22 0 10 -6 20 -12 23
-8 2 -13 -6 -13 -23z"/>
<path d="M2880 3615 c0 -17 5 -25 13 -22 6 2 12 12 12 22 0 10 -6 20 -12 23
-8 2 -13 -6 -13 -23z"/>
<path d="M3055 3620 c-3 -5 -1 -10 4 -10 6 0 11 5 11 10 0 6 -2 10 -4 10 -3 0
-8 -4 -11 -10z"/>
<path d="M3130 3615 c0 -17 5 -25 13 -22 6 2 12 12 12 22 0 10 -6 20 -12 23
-8 2 -13 -6 -13 -23z"/>
<path d="M3190 3615 c0 -17 5 -25 13 -22 6 2 12 12 12 22 0 10 -6 20 -12 23
-8 2 -13 -6 -13 -23z"/>
<path d="M2125 3621 c-8 -15 3 -31 21 -31 9 0 14 7 12 17 -4 20 -24 28 -33 14z"/>
<path d="M2197 3623 c-13 -12 -7 -33 8 -33 8 0 15 9 15 20 0 20 -11 26 -23 13z"/>
<path d="M2645 3621 c-8 -15 3 -31 21 -31 9 0 14 7 12 17 -4 20 -24 28 -33 14z"/>
<path d="M2055 3371 c-8 -15 3 -31 21 -31 9 0 14 7 12 17 -4 20 -24 28 -33 14z"/>
<path d="M2187 3373 c-13 -12 -7 -33 8 -33 8 0 15 9 15 20 0 20 -11 26 -23 13z"/>
<path d="M2670 3365 c0 -16 6 -25 15 -25 9 0 15 9 15 25 0 16 -6 25 -15 25 -9
0 -15 -9 -15 -25z"/>
<path d="M2730 3365 c0 -16 6 -25 15 -25 9 0 15 9 15 25 0 16 -6 25 -15 25 -9
0 -15 -9 -15 -25z"/>
<path d="M2960 3365 c0 -16 6 -25 15 -25 9 0 15 9 15 25 0 16 -6 25 -15 25 -9
0 -15 -9 -15 -25z"/>
<path d="M3040 3365 c0 -16 6 -25 15 -25 9 0 15 9 15 25 0 16 -6 25 -15 25 -9
0 -15 -9 -15 -25z"/>
<path d="M3100 3365 c0 -16 6 -25 15 -25 9 0 15 9 15 25 0 16 -6 25 -15 25 -9
0 -15 -9 -15 -25z"/>
<path d="M2256 3373 c-12 -12 -6 -33 9 -33 8 0 15 6 15 14 0 17 -14 28 -24 19z"/>
<path d="M2320 3361 c0 -12 6 -21 16 -21 9 0 14 7 12 17 -5 25 -28 28 -28 4z"/>
<path d="M2385 3371 c-8 -15 3 -31 21 -31 9 0 14 7 12 17 -4 20 -24 28 -33 14z"/>
<path d="M3545 7370 c3 -5 10 -10 16 -10 5 0 9 5 9 10 0 6 -7 10 -16 10 -8 0
-12 -4 -9 -10z"/>
<path d="M3149 7307 c-11 -9 -13 -21 -8 -47 8 -38 3 -53 -11 -30 -8 12 -10 12
-16 -3 -14 -37 2 -47 76 -47 38 0 70 4 70 9 0 5 3 16 6 24 6 16 -72 107 -91
107 -5 0 -17 -6 -26 -13z m21 -22 c0 -8 -4 -15 -10 -15 -5 0 -10 7 -10 15 0 8
5 15 10 15 6 0 10 -7 10 -15z"/>
<path d="M4315 3050 c3 -5 10 -10 16 -10 5 0 9 5 9 10 0 6 -7 10 -16 10 -8 0
-12 -4 -9 -10z"/>
<path d="M4475 2920 c3 -5 8 -10 11 -10 2 0 4 5 4 10 0 6 -5 10 -11 10 -5 0
-7 -4 -4 -10z"/>
<path d="M4500 2900 c0 -5 7 -10 15 -10 8 0 15 5 15 10 0 6 -7 10 -15 10 -8 0
-15 -4 -15 -10z"/>
<path d="M5001 2741 c19 -26 29 -31 54 -29 43 4 46 34 3 41 -18 3 -44 8 -57
13 l-24 7 24 -32z"/>
<path d="M4480 2716 c0 -16 28 -42 36 -33 8 7 -14 47 -26 47 -6 0 -10 -6 -10
-14z"/>
</g>
</svg>
