<?xml version="1.0" standalone="no"?>
<!DOCTYPE svg PUBLIC "-//W3C//DTD SVG 20010904//EN"
 "http://www.w3.org/TR/2001/REC-SVG-20010904/DTD/svg10.dtd">
<svg version="1.0" xmlns="http://www.w3.org/2000/svg"
 width="514.000000pt" height="739.000000pt" viewBox="0 0 514.000000 739.000000"
 preserveAspectRatio="xMidYMid meet">

<g transform="translate(0.000000,739.000000) scale(0.100000,-0.100000)"
fill="#000000" stroke="none">
<path d="M10 3685 l0 -3685 2560 0 2560 0 0 1183 -1 1182 -46 23 c-34 18 -48
21 -57 12 -8 -9 -3 -18 19 -35 39 -32 23 -45 -24 -18 -75 43 -146 36 -127 -14
7 -16 -8 -33 -30 -33 -6 0 -16 11 -22 24 -9 21 -8 25 6 29 15 4 15 5 -2 6 -12
1 -16 6 -12 16 3 8 1 15 -5 15 -5 0 -24 13 -42 30 -52 48 -78 55 -123 31 -46
-25 -53 -26 -50 -6 3 19 26 46 51 61 12 6 16 16 12 27 -10 26 -61 21 -93 -8
-36 -33 -37 -32 -13 10 12 19 25 35 30 35 16 0 10 26 -12 49 -19 20 -28 22
-71 17 -44 -6 -49 -5 -57 16 -5 13 -7 33 -5 46 3 12 0 22 -5 22 -17 0 -73 59
-66 70 4 6 -4 19 -16 29 l-23 18 22 14 c18 12 19 15 7 29 -12 14 -10 18 15 35
30 20 41 55 18 55 -6 0 -20 8 -30 17 -11 10 -40 20 -66 23 -29 3 -46 10 -45
18 4 16 -14 16 -19 0 -3 -9 -9 -8 -21 4 -9 9 -30 19 -47 23 -41 9 -38 20 6 22
20 1 44 9 53 17 19 18 31 12 31 -15 0 -24 19 -28 53 -11 26 13 31 13 45 -2 9
-9 17 -24 17 -34 0 -13 9 -17 39 -17 36 0 40 -3 48 -32 8 -30 43 -61 55 -49 3
2 -5 19 -17 35 -11 17 -18 35 -15 41 10 16 55 12 55 -5 0 -8 7 -15 15 -15 8 0
15 6 15 13 0 8 3 8 9 -2 5 -8 7 -19 5 -26 -3 -6 13 -30 34 -53 30 -32 38 -49
37 -73 -2 -32 13 -87 31 -110 11 -15 33 -76 39 -110 6 -32 35 -59 85 -81 50
-22 192 -60 199 -53 2 3 -2 11 -9 20 -11 13 -10 19 5 35 18 20 18 20 42 -2 29
-27 29 -36 1 -47 -26 -9 -16 -17 35 -26 l37 -7 0 51 c0 39 -3 50 -12 45 -8 -5
-8 -1 1 10 13 15 13 19 0 27 -20 13 -39 11 -39 -3 0 -8 -15 -14 -39 -14 -36
-2 -39 0 -28 16 6 11 23 22 37 26 20 6 21 8 7 11 -10 3 -24 -1 -32 -7 -12 -10
-18 -10 -30 0 -8 7 -15 17 -15 22 0 6 7 8 15 4 22 -8 19 18 -5 39 -11 10 -18
20 -16 23 3 2 -1 11 -9 19 -20 20 -19 34 3 27 12 -4 10 0 -7 16 -16 13 -21 24
-14 31 6 6 16 3 28 -11 10 -11 26 -20 36 -20 10 0 21 -4 24 -10 3 -5 23 -14
45 -20 28 -7 40 -17 43 -33 3 -12 4 -4 2 18 -2 38 -4 40 -34 39 -17 0 -31 4
-31 8 0 4 -9 8 -19 8 -10 0 -21 7 -25 15 -3 8 -17 20 -31 27 -14 6 -25 19 -25
29 0 9 -12 26 -27 37 -14 10 -22 22 -17 25 14 8 75 -24 67 -36 -4 -6 2 -8 15
-5 14 4 30 -4 53 -26 24 -23 29 -26 21 -9 -7 12 -17 25 -22 28 -6 3 -10 10
-10 16 0 13 44 11 59 -3 11 -10 13 -10 7 0 -4 7 -1 12 8 12 14 0 16 217 16
2235 l0 2235 -350 0 c-253 0 -350 -3 -350 -11 0 -6 15 -29 34 -49 43 -48 67
-137 46 -175 -9 -18 -10 -34 -3 -63 8 -30 7 -45 -4 -66 -18 -35 -44 -33 -66 5
l-18 32 -62 -8 c-66 -8 -116 -9 -185 -1 -23 2 -45 0 -48 -5 -3 -5 -10 -7 -15
-4 -5 4 -9 1 -9 -4 0 -15 -66 -14 -93 0 -28 16 -52 40 -60 62 -9 24 -24 21
-23 -4 1 -17 -9 -24 -44 -35 -25 -7 -46 -10 -48 -6 -18 50 -27 56 -81 57 -29
0 -55 -4 -58 -8 -3 -5 -11 -6 -19 -3 -7 3 -16 1 -18 -3 -5 -7 -129 -15 -205
-13 -25 0 -46 23 -31 32 21 13 16 120 -5 120 -42 0 -85 -46 -77 -82 1 -5 -5
-8 -14 -8 -9 0 -12 -5 -8 -12 5 -8 2 -9 -10 -5 -10 4 -16 2 -15 -6 1 -6 1 -19
0 -27 -1 -13 -2 -13 -11 0 -5 8 -10 10 -10 4 0 -19 -66 -45 -95 -38 -14 3 -33
19 -42 35 -10 16 -30 35 -45 42 -16 6 -28 15 -28 19 0 4 -7 5 -15 2 -8 -4 -15
-1 -15 5 0 7 -7 11 -16 9 -9 -2 -20 6 -24 18 -9 23 20 65 53 77 9 3 17 13 17
21 0 8 10 16 22 18 11 2 22 11 24 21 3 24 4 24 33 29 19 2 25 -2 26 -20 1 -13
-4 -26 -12 -29 -10 -4 -11 -9 -3 -18 8 -9 7 -14 -3 -18 -20 -7 -31 -68 -15
-79 22 -13 135 -10 141 5 7 19 -4 68 -14 61 -5 -3 -9 2 -9 10 0 9 -4 16 -10
16 -5 0 -10 7 -10 16 0 8 -4 12 -10 9 -9 -6 -14 8 -11 29 1 4 -1 17 -4 27 -6
19 -44 19 -1601 19 l-1594 0 0 -3685z m1011 3408 c-6 -21 -13 -26 -40 -27
l-33 -1 33 28 c41 34 49 34 40 0z m102 -2 c-9 -6 -27 -43 -37 -75 -7 -21 8
-36 37 -36 10 0 30 -14 44 -31 24 -28 28 -29 39 -15 10 14 13 14 17 3 3 -8 1
-19 -3 -23 -5 -5 -5 -15 -1 -22 6 -11 14 -8 35 13 14 14 26 30 26 34 0 5 7 14
15 21 23 19 76 -102 83 -189 8 -116 -37 -227 -87 -214 -12 3 -21 8 -21 12 0
12 -73 6 -78 -7 -2 -6 1 -12 7 -12 6 0 11 -9 11 -19 0 -11 5 -23 10 -26 12 -7
14 -45 2 -45 -4 0 -19 17 -32 38 l-25 38 -52 -23 c-38 -18 -50 -28 -46 -39 5
-12 7 -13 14 -3 14 23 22 1 13 -33 -8 -28 -14 -32 -47 -34 -28 -2 -37 1 -37
13 0 9 6 13 15 9 9 -3 15 0 15 10 0 10 -6 14 -15 10 -9 -3 -15 0 -15 10 0 9 7
14 18 12 11 -2 21 2 23 7 2 6 -24 12 -62 16 -43 3 -78 13 -102 28 l-36 22 -20
-20 c-12 -12 -18 -21 -13 -21 4 -1 -3 -9 -16 -20 l-22 -19 42 -25 c24 -14 38
-26 31 -26 -14 0 -95 61 -100 75 -2 6 26 25 62 43 36 19 65 34 65 36 0 9 -51
-4 -73 -19 -35 -23 -43 -15 -17 17 16 21 17 28 7 36 -10 8 -19 1 -37 -28 -14
-22 -28 -40 -33 -40 -4 0 -5 -6 -1 -12 6 -10 4 -10 -8 0 -8 7 -28 40 -44 75
-25 54 -29 74 -29 152 0 72 5 100 23 140 13 27 28 52 34 56 16 10 38 -1 38
-19 0 -8 3 -12 7 -9 3 4 14 0 24 -9 13 -11 19 -12 24 -3 5 7 1 16 -9 21 -12 7
-14 14 -6 27 5 10 6 22 2 26 -4 5 -2 5 4 2 7 -4 22 2 35 12 36 28 68 43 122
57 57 15 80 10 72 -17 -5 -16 -1 -19 30 -19 20 0 34 4 30 10 -3 5 -12 7 -20 3
-10 -3 -15 1 -15 12 0 11 5 15 14 12 9 -4 16 3 20 19 4 13 11 24 17 24 6 0 8
4 5 9 -4 5 3 7 15 4 11 -3 17 -9 12 -12z m-188 -16 c-7 -11 -19 -19 -25 -17
-7 1 -18 -3 -26 -9 -18 -15 -18 -4 1 24 8 13 24 22 39 22 23 0 24 -2 11 -20z
m135 10 c0 -12 -19 -12 -23 0 -4 9 -1 12 9 8 7 -3 14 -7 14 -8z m130 -35 c0
-22 -39 -72 -51 -65 -14 10 -10 35 6 35 21 0 37 34 22 49 -9 10 -8 11 6 6 9
-4 17 -15 17 -25z m-352 -10 c-5 -17 -15 -29 -22 -27 -20 7 -17 32 6 43 13 6
24 12 25 13 1 0 -3 -13 -9 -29z m307 20 c3 -5 1 -10 -4 -10 -6 0 -11 5 -11 10
0 6 2 10 4 10 3 0 8 -4 11 -10z m-34 -57 c-8 -15 -10 -15 -11 -2 0 17 10 32
18 25 2 -3 -1 -13 -7 -23z m144 -13 c-4 -6 -13 -9 -20 -6 -8 3 -19 -2 -25 -10
-7 -8 -19 -14 -28 -14 -13 0 -13 2 1 18 10 10 17 24 17 30 0 16 33 20 49 6 7
-7 10 -17 6 -24z m-471 15 c3 -8 2 -15 -3 -15 -5 0 -14 7 -21 15 -10 12 -10
15 3 15 8 0 17 -7 21 -15z m-24 -35 c0 -5 -4 -10 -10 -10 -5 0 -10 5 -10 10 0
6 5 10 10 10 6 0 10 -4 10 -10z m1262 -142 c-3 -13 1 -18 18 -18 17 0 21 4 17
20 -3 13 0 20 9 20 8 0 14 -8 14 -18 0 -11 8 -18 20 -19 13 -1 18 2 14 9 -4 7
-2 8 4 4 17 -10 15 -26 -3 -26 -21 0 -19 -18 3 -23 9 -2 -2 -4 -25 -4 -31 -1
-40 3 -36 13 3 9 -2 14 -17 14 -16 0 -20 -4 -16 -15 3 -8 0 -15 -7 -15 -7 0
-12 15 -12 38 0 22 5 39 11 39 6 0 9 -9 6 -19z m433 -8 c19 -38 8 -63 -12 -29
-14 24 -14 24 -10 2 3 -13 1 -23 -4 -23 -5 0 -9 18 -9 40 0 48 14 51 35 10z
m50 -10 c0 -25 -5 -40 -12 -40 -7 0 -13 4 -13 9 0 5 -3 16 -6 24 -4 11 18 47
29 47 1 0 2 -18 2 -40z m443 -7 c-2 -15 -8 -28 -14 -30 -7 -2 -10 6 -7 22 3
14 -1 33 -8 42 -13 15 -12 15 9 4 17 -9 22 -20 20 -38z m506 7 c25 -38 24 -54
-2 -28 -9 9 -12 9 -12 0 0 -7 -4 -12 -10 -12 -5 0 -10 18 -10 40 0 22 2 40 4
40 2 0 15 -18 30 -40z m206 5 c0 -19 5 -35 11 -35 7 0 10 14 7 35 -2 19 0 35
4 35 4 0 8 -9 8 -20 0 -13 5 -18 15 -14 11 4 13 2 9 -9 -3 -8 -1 -18 5 -22 6
-3 11 0 11 8 0 21 25 38 44 31 10 -4 16 -15 14 -28 -2 -16 -10 -21 -38 -22
-19 -1 -41 3 -47 8 -9 7 -13 7 -13 -1 0 -7 -18 -11 -50 -10 -46 2 -50 4 -50
26 0 14 -4 21 -10 18 -5 -3 -10 -15 -10 -26 0 -10 -4 -19 -9 -19 -12 0 -1 43
13 52 6 4 16 2 23 -3 7 -6 17 -8 23 -4 6 3 10 -3 10 -14 0 -12 5 -21 10 -21 6
0 9 15 7 35 -3 19 0 35 4 35 5 0 9 -16 9 -35z m-765 5 c-4 -12 -1 -27 5 -35 8
-10 9 -15 2 -15 -18 0 -31 33 -21 52 13 24 22 23 14 -2z m-705 -26 c0 -13 -4
-24 -10 -24 -5 0 -10 14 -10 31 0 17 4 28 10 24 6 -3 10 -17 10 -31z m30 0 c0
-35 -15 -30 -16 6 -1 16 3 27 7 24 5 -3 9 -16 9 -30z m340 15 c0 -5 -7 -9 -15
-9 -21 0 -19 -17 3 -24 10 -3 6 -4 -8 -3 -18 1 -25 8 -25 22 0 14 6 19 19 17
12 -2 16 1 10 9 -4 8 -3 10 4 5 7 -4 12 -11 12 -17z m60 -15 c0 -13 -4 -24
-10 -24 -5 0 -10 14 -10 31 0 17 4 28 10 24 6 -3 10 -17 10 -31z m36 19 c13
-17 13 -17 14 0 0 9 5 17 10 17 6 0 1 -18 -10 -40 -11 -22 -26 -40 -33 -40 -8
0 -7 3 2 9 12 8 13 14 3 36 -18 40 -11 50 14 18z m354 -19 c0 -13 -4 -24 -10
-24 -5 0 -10 14 -10 31 0 17 4 28 10 24 6 -3 10 -17 10 -31z m30 0 c0 -35 -15
-30 -16 6 -1 16 3 27 7 24 5 -3 9 -16 9 -30z m104 23 c9 10 67 9 73 -1 4 -5 1
-6 -5 -2 -7 4 -12 3 -12 -2 0 -6 7 -13 16 -16 31 -12 1 -27 -50 -24 -42 2 -52
6 -52 20 1 9 -3 17 -9 17 -5 0 -10 -9 -9 -19 1 -23 -11 -26 -20 -5 -8 22 22
47 43 35 10 -5 21 -6 25 -3z m367 -20 c1 -20 2 -20 6 -2 9 36 23 41 23 7 0
-27 -4 -32 -25 -32 -21 0 -25 5 -25 31 0 34 19 31 21 -4z m371 14 c-3 -9 -10
-19 -16 -23 -7 -5 -4 -8 7 -8 26 0 16 -24 -11 -28 -19 -3 -22 1 -22 27 0 17
-4 31 -10 31 -5 0 -10 -9 -10 -20 0 -11 -4 -20 -10 -20 -5 0 -10 11 -10 24 0
25 6 27 77 32 6 0 9 -6 5 -15z m458 -1 c0 -11 -2 -20 -4 -20 -2 0 -6 9 -9 20
-3 11 -1 20 4 20 5 0 9 -9 9 -20z m123 0 c-3 -11 -7 -20 -9 -20 -2 0 -4 9 -4
20 0 11 4 20 9 20 5 0 7 -9 4 -20z m-2303 -15 c0 -14 -4 -25 -10 -25 -5 0 -10
11 -10 25 0 14 5 25 10 25 6 0 10 -11 10 -25z m430 0 c0 -14 -4 -25 -10 -25
-5 0 -10 11 -10 25 0 14 5 25 10 25 6 0 10 -11 10 -25z m390 0 c0 -14 -4 -25
-10 -25 -5 0 -10 11 -10 25 0 14 5 25 10 25 6 0 10 -11 10 -25z m1458 -32
c-15 -2 -42 -2 -60 0 -18 2 -6 4 27 4 33 0 48 -2 33 -4z m-98 -33 c-12 -8 -12
-10 -1 -10 8 0 12 -3 8 -6 -9 -9 -28 6 -22 17 4 5 12 9 18 9 7 0 6 -4 -3 -10z
m130 -7 c0 -14 -2 -15 -9 -4 -7 11 -9 11 -14 0 -4 -10 -6 -9 -6 4 -1 9 6 17
14 17 8 0 15 -8 15 -17z m-3200 -204 c0 -8 6 -7 18 2 10 7 8 3 -4 -10 -23 -24
-47 -21 -37 4 6 18 23 20 23 4z m-387 -23 c20 7 22 -13 5 -51 -11 -25 -28 -34
-28 -15 0 6 -8 10 -18 10 -24 0 -32 8 -25 26 7 20 23 17 23 -3 0 -15 2 -16 10
-3 14 22 12 30 -7 30 -15 0 -16 2 -3 10 9 5 17 5 21 -1 3 -5 13 -7 22 -3z
m279 -25 l22 -34 -27 5 c-18 3 -27 1 -27 -7 0 -7 -7 -16 -16 -19 -11 -4 -15
-2 -11 8 3 8 9 31 13 51 8 42 17 42 46 -4z m-182 -10 c0 -11 -4 -23 -10 -26
-6 -4 -10 5 -10 19 0 14 5 26 10 26 6 0 10 -9 10 -19z m215 -31 c-3 -5 -12
-10 -18 -10 -7 0 -6 4 3 10 19 12 23 12 15 0z m-275 -19 c0 -11 6 -22 13 -24
8 -4 7 -6 -3 -6 -17 -1 -43 33 -33 43 12 12 23 6 23 -13z m60 -5 c0 -8 -6 -16
-14 -19 -10 -4 -12 0 -9 14 6 22 23 26 23 5z m33 -33 c-7 -2 -19 -2 -25 0 -7
3 -2 5 12 5 14 0 19 -2 13 -5z m1552 -513 c-3 -6 1 -13 9 -16 22 -8 21 -63 -1
-79 -12 -9 -23 -10 -39 -3 -15 7 -28 7 -42 -1 -11 -6 -29 -11 -39 -11 -13 1
-3 15 35 50 29 28 50 50 45 50 -10 0 19 20 30 20 5 0 5 -5 2 -10z m-92 -7 c-7
-2 -19 -2 -25 0 -7 3 -2 5 12 5 14 0 19 -2 13 -5z m281 -13 c82 -21 137 -46
81 -36 -28 4 -61 -5 -54 -15 6 -9 -21 -70 -30 -65 -5 3 -12 -2 -15 -11 -4 -9
-3 -19 2 -22 12 -8 -4 -51 -18 -51 -5 0 -10 6 -10 14 0 19 -26 40 -35 26 -3
-5 -17 -10 -31 -10 -22 0 -24 3 -18 28 9 36 12 38 34 25 21 -14 30 0 30 44 0
25 -1 25 -18 10 -22 -20 -32 -13 -32 20 0 21 3 23 28 17 15 -4 32 -14 37 -21
9 -12 13 -11 27 4 26 29 9 41 -72 51 -62 8 -67 10 -29 11 25 0 80 -8 123 -19z
m-337 4 c-3 -3 -12 -4 -19 -1 -8 3 -5 6 6 6 11 1 17 -2 13 -5z m-50 -13 c-17
-6 -17 -8 5 -18 18 -8 28 -7 43 3 43 32 43 10 0 -39 -37 -43 -51 -53 -70 -50
-15 3 -31 -3 -45 -17 -35 -35 -35 -16 -1 45 17 31 29 60 26 65 -5 8 16 17 45
18 10 0 9 -2 -3 -7z m-97 -31 c-8 -5 -19 -10 -25 -10 -5 0 -3 5 5 10 8 5 20
10 25 10 6 0 3 -5 -5 -10z m696 -50 c118 -72 228 -192 287 -312 68 -138 82
-198 81 -358 0 -126 -3 -142 -33 -230 -53 -156 -131 -269 -251 -367 -62 -50
-206 -131 -216 -120 -2 2 9 10 26 17 16 7 28 16 25 20 -3 5 4 6 15 3 30 -8 25
21 -7 42 -25 17 -27 17 -40 -1 -7 -10 -13 -21 -13 -24 0 -6 -44 -30 -54 -30
-1 0 3 26 11 58 7 31 16 78 19 105 3 32 10 47 20 47 19 0 105 -135 98 -155 -8
-21 11 -19 57 7 38 21 43 38 11 38 -17 1 -107 118 -107 142 -1 17 -21 12 -58
-14 -16 -11 -58 -31 -93 -43 -36 -13 -67 -24 -69 -27 -2 -2 5 -14 15 -28 l19
-25 16 23 c40 55 43 8 8 -105 -18 -57 -23 -62 -43 -38 -7 8 -16 12 -21 9 -5
-3 -9 1 -9 8 0 8 -7 4 -18 -8 -9 -12 -28 -24 -40 -27 -23 -5 -24 -3 -20 33 2
29 -1 40 -12 44 -9 2 -7 4 6 5 12 0 27 -6 34 -14 19 -23 28 -18 23 13 -9 51
-13 59 -24 40 -15 -27 -39 -22 -39 8 0 22 4 26 23 21 12 -2 29 -8 38 -11 11
-5 18 -1 21 12 9 33 -4 39 -75 34 -56 -4 -66 -7 -56 -18 14 -17 3 -64 -19 -80
-16 -12 -16 -13 1 -19 20 -8 23 -55 5 -73 -9 -9 1 -12 48 -14 l59 -1 -50 -7
c-38 -6 -30 -7 36 -5 47 2 114 11 148 20 83 21 90 13 9 -11 -97 -28 -297 -26
-403 4 -95 28 -215 89 -279 144 -35 30 -46 46 -46 69 0 27 7 32 86 69 48 22
88 40 90 40 2 0 4 -8 4 -17 -1 -22 -26 -57 -43 -59 -56 -5 -53 -4 -34 -15 9
-5 22 -7 29 -3 6 4 -1 -9 -17 -30 -21 -27 -33 -35 -49 -31 -11 2 -15 2 -8 -1
6 -3 9 -11 6 -16 -4 -7 -2 -8 5 -4 7 4 10 2 9 -5 -2 -6 3 -14 11 -17 9 -3 11
0 6 9 -5 8 -4 11 1 6 5 -5 9 -14 9 -20 0 -7 8 -11 18 -11 9 1 14 -2 11 -7 -6
-11 125 -74 174 -84 31 -6 32 -6 21 17 -8 19 -7 36 3 72 l14 48 13 -58 c18
-78 31 -104 52 -104 20 0 21 3 38 115 6 39 12 77 14 85 3 10 -14 19 -62 32
-36 9 -68 17 -71 17 -3 1 -6 -14 -6 -32 -2 -44 -43 -147 -59 -147 -7 0 -18 14
-24 31 -8 25 -14 29 -31 24 -12 -4 -33 -4 -46 -1 -20 5 -24 11 -18 28 4 15 3
18 -6 13 -9 -5 -11 -4 -6 4 4 6 12 9 17 6 5 -4 12 1 16 11 5 15 9 13 29 -11
l22 -28 16 38 c20 47 20 48 -4 35 -28 -15 -43 -4 -30 21 15 28 39 23 53 -10
11 -26 14 -27 27 -13 26 28 19 42 -38 79 -38 24 -52 38 -42 41 8 3 20 11 27
18 10 9 7 13 -15 17 -15 2 -34 7 -43 11 -12 5 -18 1 -22 -14 -7 -28 -115 -76
-131 -59 -8 9 -8 10 1 5 13 -7 55 64 51 85 -2 6 4 14 12 16 13 4 13 3 0 -6
-13 -9 -13 -11 3 -11 24 0 21 20 -8 55 -19 24 -24 26 -25 12 0 -10 -13 -37
-29 -60 -15 -23 -36 -57 -45 -75 -13 -25 -22 -33 -37 -29 -25 7 -25 -15 1 -38
11 -10 20 -15 20 -11 0 4 5 4 10 1 6 -4 8 -11 4 -16 -10 -16 -51 28 -99 106
-83 133 -116 253 -116 414 0 254 117 486 316 626 64 45 105 69 105 61 0 -3
-15 -13 -32 -22 -32 -17 -32 -17 -11 -27 19 -8 27 -5 49 17 37 36 50 33 26 -6
-11 -18 -25 -50 -32 -70 -6 -21 -17 -38 -24 -38 -7 0 -22 18 -35 40 -12 22
-19 40 -15 40 4 0 5 3 1 6 -3 3 -19 -3 -35 -15 l-30 -21 29 -31 c16 -17 29
-40 29 -50 0 -25 7 -24 44 5 35 26 193 108 216 112 131 19 176 27 182 30 12 8
9 -71 -3 -83 -17 -17 19 -32 89 -35 34 -2 62 -7 62 -12 0 -4 7 -5 16 -2 8 3
13 2 10 -3 -3 -5 3 -11 14 -14 18 -4 19 -1 17 33 -2 22 0 37 5 34 4 -3 8 0 8
5 0 6 6 11 14 11 14 0 13 -10 -9 -92 -7 -26 -5 -28 22 -28 21 0 45 -14 86 -51
l57 -51 9 25 c14 35 41 43 41 12 0 -18 4 -23 16 -18 14 5 15 3 5 -16 -7 -12
-16 -19 -20 -16 -18 11 -20 -27 -2 -55 18 -30 31 -30 31 -1 0 21 40 61 55 55
13 -5 28 11 31 34 1 6 -2 12 -7 12 -5 0 -2 11 7 26 9 14 23 23 29 20 20 -7 6
30 -21 55 -13 12 -24 18 -24 12 0 -6 -13 -16 -30 -22 -18 -6 -30 -6 -30 0 0
17 -32 9 -37 -10 -5 -20 -42 -41 -73 -41 -10 0 -21 -6 -23 -12 -3 -7 -6 -5 -6
6 -1 10 19 44 44 74 25 30 43 57 41 61 -3 4 5 8 16 8 33 3 34 12 3 38 -35 28
-45 31 -45 10 0 -21 -88 -140 -103 -140 -7 0 -13 18 -15 46 -3 44 -2 46 30 55
27 8 33 15 33 38 1 17 -9 42 -23 58 -13 15 -20 28 -15 28 5 0 45 -22 89 -50z
m-105 10 c15 -9 17 -15 9 -30 -13 -24 -55 -27 -64 -4 -4 10 -2 13 6 8 8 -5 9
-2 5 10 -4 10 -3 15 3 11 6 -3 10 -1 10 4 0 14 6 14 31 1z m6 -76 c-3 -3 -12
-4 -19 -1 -8 3 -5 6 6 6 11 1 17 -2 13 -5z m-224 -41 c-7 -2 -19 -2 -25 0 -7
3 -2 5 12 5 14 0 19 -2 13 -5z m434 -114 c-14 -23 -27 -25 -27 -4 0 8 5 15 11
15 5 0 7 4 4 10 -3 5 0 7 9 4 12 -5 13 -9 3 -25z m-1897 -505 c0 -25 -6 -25
-38 0 -11 8 -10 11 5 17 29 12 33 10 33 -17z m-707 -31 c7 -37 5 -37 -15 -2
-13 22 -14 29 -4 29 8 0 16 -12 19 -27z m113 -15 c5 4 2 -1 -5 -10 -12 -15
-11 -18 3 -18 9 0 16 5 16 10 0 6 4 10 10 10 6 0 5 -9 -1 -24 -9 -20 -15 -22
-28 -14 -9 5 -22 21 -28 34 -10 21 -9 23 7 14 9 -5 21 -6 26 -2z m185 2 c12
-7 19 -21 19 -41 0 -27 -2 -29 -15 -15 -16 16 -38 66 -29 66 3 0 14 -5 25 -10z
m269 -30 c0 -5 -4 -10 -9 -10 -6 0 -13 5 -16 10 -3 6 1 10 9 10 9 0 16 -4 16
-10z m-335 -17 c28 -14 34 -23 30 -39 -3 -13 2 -27 10 -34 19 -16 19 -30 -1
-30 -8 0 -13 -3 -11 -7 3 -5 -9 -9 -26 -10 l-32 -2 22 18 c25 21 21 31 -12 31
-13 0 -28 7 -35 15 -10 13 -9 15 9 15 25 0 26 8 5 38 -18 27 -7 28 41 5z
m-159 -65 c16 -7 24 -20 24 -35 0 -29 32 -93 37 -75 6 16 23 15 23 -2 0 -8 9
-24 19 -37 15 -18 27 -23 54 -21 28 3 40 -2 61 -25 32 -35 32 -41 0 -54 -33
-12 -44 -4 -19 15 11 8 16 20 12 30 -9 22 -19 20 -51 -9 l-26 -24 -22 29 c-16
23 -30 30 -55 30 -18 0 -33 4 -33 10 0 10 -65 43 -87 44 -7 1 -13 6 -13 11 1
11 22 12 63 2 23 -6 27 -4 27 12 0 20 -8 24 -69 36 -25 5 -32 4 -26 -5 5 -8 3
-11 -6 -8 -7 2 -16 18 -20 35 -5 28 -4 30 22 31 20 0 29 -5 33 -21 4 -17 8
-19 18 -9 14 14 7 23 -37 47 l-30 17 38 -7 c22 -3 50 -11 63 -17z m408 6 c4
-10 1 -14 -6 -12 -15 5 -23 28 -10 28 5 0 13 -7 16 -16z m71 -34 c9 -16 19
-30 24 -30 13 0 22 -28 11 -35 -7 -4 -70 77 -70 91 0 15 22 -1 35 -26z m-635
-3 c-3 -5 7 -15 23 -23 15 -8 27 -22 27 -30 0 -13 -5 -12 -29 5 -29 21 -67 29
-56 12 3 -5 1 -12 -4 -15 -17 -11 -22 11 -9 39 8 18 18 25 32 23 12 -2 19 -7
16 -11z m280 -56 c0 -16 3 -38 6 -48 5 -15 4 -14 -9 3 -9 11 -19 33 -22 47 -6
21 -4 27 9 27 11 0 16 -9 16 -29z m270 -1 c0 -5 11 -10 24 -10 14 0 28 -4 31
-10 3 -5 17 -10 31 -10 13 0 24 -5 24 -11 0 -6 -9 -8 -22 -4 -18 6 -20 4 -14
-11 6 -15 5 -17 -5 -6 -7 6 -17 12 -23 12 -6 0 -5 -5 2 -12 19 -19 14 -29 -8
-16 -11 7 -18 18 -16 25 3 7 -8 19 -24 27 l-29 14 15 -24 c24 -35 7 -50 -23
-20 -20 21 -23 28 -13 45 11 21 50 30 50 11z m-847 -92 c8 -28 5 -31 -18 -14
-10 7 -15 18 -11 24 11 18 23 14 29 -10z m755 3 c3 -8 -1 -12 -9 -9 -7 2 -15
10 -17 17 -3 8 1 12 9 9 7 -2 15 -10 17 -17z m90 -28 c5 -18 -10 -16 -34 2
-18 15 -18 15 5 13 14 -2 26 -9 29 -15z m161 -35 c2 -18 -17 -6 -39 25 l-24
32 31 -25 c18 -14 32 -28 32 -32z m-653 16 c-3 -8 6 -20 24 -29 39 -20 38 -25
-5 -18 -30 5 -34 3 -29 -11 7 -19 -7 -21 -24 -4 -17 17 -15 35 6 63 18 24 37
23 28 -1z m-348 -2 c3 -9 -2 -13 -14 -10 -9 1 -19 9 -22 16 -3 9 2 13 14 10 9
-1 19 -9 22 -16z m292 8 c0 -5 -10 -10 -22 -10 -19 0 -20 2 -8 10 19 13 30 13
30 0z m563 -50 c4 -17 3 -19 -9 -9 -8 6 -14 18 -14 26 0 20 16 8 23 -17z
m-865 5 c28 -9 28 -19 -2 -33 -20 -9 -27 -7 -49 16 l-26 27 27 -1 c15 -1 37
-5 50 -9z m827 -5 c3 -6 -1 -7 -9 -4 -18 7 -21 14 -7 14 6 0 13 -4 16 -10z
m-227 -30 c7 -11 21 -20 32 -20 11 0 20 -4 20 -8 0 -4 -12 -8 -27 -7 -25 0
-29 -4 -34 -40 -5 -39 -6 -39 -13 -12 -5 17 -4 32 3 41 8 10 9 16 1 21 -11 7
-14 45 -2 45 4 0 13 -9 20 -20z m-182 -34 c20 -21 17 -28 -8 -24 -13 2 -24 11
-26 21 -4 21 14 22 34 3z m1944 -36 c0 -53 -18 -60 -26 -11 -4 25 -11 39 -18
35 -6 -3 -2 1 8 10 26 21 36 12 36 -34z m-1895 30 c3 -5 2 -10 -4 -10 -5 0
-13 5 -16 10 -3 6 -2 10 4 10 5 0 13 -4 16 -10z m-201 -19 c3 -5 -1 -14 -9
-21 -13 -10 -15 -9 -15 9 0 21 14 28 24 12z m826 -10 c0 -23 -16 -36 -25 -22
-3 6 -15 7 -29 1 -13 -4 -42 -6 -65 -3 -29 4 -41 2 -41 -7 0 -10 -3 -10 -16 0
-12 11 -15 11 -12 0 2 -9 -16 -17 -54 -25 -60 -13 -68 -11 -68 13 0 9 3 13 6
9 3 -3 27 0 52 8 49 13 146 32 197 38 17 2 36 5 43 6 6 0 12 -8 12 -18z m-16
-56 c25 -19 12 -34 -25 -30 -38 5 -43 9 -36 30 8 19 36 19 61 0z m-136 -29
c13 -4 22 -3 22 3 0 6 6 8 14 5 8 -3 12 -12 10 -19 -4 -10 -12 -11 -35 -3 -21
7 -38 7 -59 -2 -31 -13 -31 -35 0 -25 15 5 17 2 13 -15 -6 -23 -29 -26 -52 -6
-9 7 -29 19 -46 25 l-30 11 33 -5 c25 -3 32 -1 32 11 0 11 5 14 17 10 10 -4
14 -4 10 0 -4 5 3 13 15 20 13 7 25 9 28 5 3 -5 15 -11 28 -15z m-199 -10 c5
-3 11 -15 14 -26 4 -15 2 -19 -6 -12 -7 5 -46 10 -87 11 -41 2 -78 5 -83 8
-15 9 16 23 39 17 12 -3 25 -1 28 5 7 10 77 8 95 -3z m-188 -26 c-7 -4 5 -12
28 -19 45 -13 76 -51 43 -51 -11 0 -25 6 -31 14 -15 17 -49 27 -56 16 -3 -5 4
-14 16 -21 20 -10 20 -12 6 -21 -10 -5 -57 -10 -105 -11 -69 -2 -93 2 -114 15
-15 10 -29 14 -32 10 -7 -12 -105 -5 -121 8 -10 9 -15 6 -20 -11 -5 -15 -10
-18 -15 -9 -4 6 -25 13 -46 15 -83 6 -125 17 -120 31 3 8 0 14 -7 14 -7 0 -4
5 6 11 13 7 27 7 50 0 45 -16 395 -25 412 -11 7 6 17 9 21 8 5 -2 10 2 11 7 1
6 17 13 35 16 36 6 56 0 39 -11z m1926 -17 c-3 -10 -5 -4 -5 12 0 17 2 24 5
18 2 -7 2 -21 0 -30z m133 -14 c0 -5 -8 -9 -17 -8 -11 0 -13 3 -5 6 6 2 9 10
6 15 -4 7 -2 8 4 4 7 -4 12 -11 12 -17z m-1894 -3 c15 -8 30 -13 33 -12 3 2
11 -2 18 -9 9 -10 3 -12 -32 -10 -23 2 -52 8 -64 14 -24 13 -29 26 -6 17 8 -3
15 -1 15 4 0 13 3 13 36 -4z m1268 -257 c-3 -5 -10 -7 -15 -3 -5 3 -7 10 -3
15 3 5 10 7 15 3 5 -3 7 -10 3 -15z m40 0 c-3 -5 -10 -7 -15 -3 -5 3 -7 10 -3
15 3 5 10 7 15 3 5 -3 7 -10 3 -15z m56 -43 c0 -42 4 -66 13 -69 6 -3 1 -6
-13 -6 -24 -1 -25 0 -23 66 1 38 2 69 2 71 1 1 6 2 11 2 6 0 10 -28 10 -64z
m60 29 c0 -37 10 -44 30 -20 7 8 18 15 24 15 6 0 1 -8 -12 -18 -21 -17 -22
-18 -5 -42 9 -14 22 -28 27 -32 7 -5 4 -8 -6 -8 -9 0 -26 12 -38 28 l-21 27 4
-27 c3 -21 0 -28 -12 -28 -13 0 -16 12 -16 70 0 49 4 70 13 70 7 0 12 -14 12
-35z m851 22 c-1 -12 -15 -9 -19 4 -3 6 1 10 8 8 6 -3 11 -8 11 -12z m59 -51
c0 -42 4 -66 13 -69 6 -3 1 -6 -13 -6 -24 -1 -25 0 -23 66 1 38 2 69 2 71 1 1
6 2 11 2 6 0 10 -28 10 -64z m60 0 c0 -42 4 -66 13 -69 6 -3 1 -6 -13 -6 -24
-1 -25 0 -23 66 1 38 2 69 2 71 1 1 6 2 11 2 6 0 10 -28 10 -64z m-1242 9 c7
-25 16 -45 21 -45 4 0 14 20 21 45 7 25 16 45 21 45 11 0 -35 -123 -47 -127
-6 -2 -18 20 -28 49 -11 29 -23 59 -29 66 -7 9 -4 12 10 12 14 0 22 -12 31
-45z m1076 3 c8 -6 7 -8 -1 -8 -8 0 -13 -14 -13 -34 0 -19 6 -37 13 -39 6 -3
2 -6 -10 -6 -24 -1 -38 27 -28 59 4 13 2 20 -7 20 -9 0 -9 3 -2 8 6 4 14 16
19 27 l8 20 5 -20 c2 -11 9 -23 16 -27z m-926 0 c5 -7 11 -30 14 -50 l4 -37
-40 2 c-53 3 -63 32 -17 50 17 6 31 15 31 19 0 14 -21 19 -35 8 -8 -7 -15 -8
-15 -3 0 25 40 32 58 11z m276 -4 c20 -19 21 -58 2 -73 -25 -21 -69 -9 -80 21
-17 50 42 89 78 52z m168 2 c4 -6 8 -26 8 -43 0 -18 5 -33 11 -33 7 0 10 16 8
43 l-4 44 70 -1 70 -1 5 -47 c5 -39 3 -48 -10 -48 -11 0 -15 11 -15 42 0 32
-4 43 -15 43 -11 0 -15 -11 -15 -43 0 -31 -4 -42 -15 -42 -12 0 -14 10 -12 45
2 25 0 45 -6 45 -19 0 -34 -30 -30 -60 4 -29 3 -30 -36 -30 l-41 0 4 46 c2 36
0 45 -10 42 -9 -3 -14 -20 -14 -46 0 -31 -4 -42 -15 -42 -11 0 -15 11 -15 42
0 32 -4 43 -15 43 -11 0 -15 -11 -15 -43 0 -31 -4 -42 -15 -42 -11 0 -15 12
-15 49 l0 49 65 -1 c36 0 68 -5 72 -11z m258 -1 c10 -12 10 -19 2 -27 -12 -12
-13 -10 -16 14 -2 23 -26 19 -36 -6 -15 -40 -3 -59 34 -52 22 5 27 3 19 -5
-20 -20 -67 -6 -77 23 -17 48 43 91 74 53z m110 -37 c5 -39 3 -48 -10 -48 -11
0 -15 11 -15 42 0 32 -4 43 -15 43 -11 0 -15 -11 -15 -43 0 -31 -4 -42 -15
-42 -11 0 -15 12 -15 49 l0 50 40 -2 c40 -2 40 -2 45 -49z m160 8 c0 -26 5
-46 13 -49 6 -3 1 -6 -13 -6 -24 -1 -25 1 -22 49 5 62 22 66 22 6z m-1602
-248 c-2 -13 -10 -23 -18 -23 -8 0 -16 10 -18 23 -3 17 2 22 18 22 16 0 21 -5
18 -22z m805 8 c8 -19 -15 -37 -32 -26 -17 10 -7 40 13 40 7 0 16 -6 19 -14z
m1434 -2 c8 -22 -18 -37 -36 -20 -7 8 -10 19 -7 25 10 16 36 13 43 -5z m-2338
-18 c50 -45 5 -116 -74 -116 l-45 0 0 -54 c0 -49 2 -55 23 -59 12 -2 -5 -4
-38 -4 -33 -1 -52 1 -42 4 16 4 17 16 15 121 -2 87 -6 116 -15 115 -7 -2 -13
2 -13 8 0 7 27 10 84 8 65 -3 89 -8 105 -23z m1319 17 c-24 -6 -23 -17 16
-123 l33 -93 32 94 c36 109 37 116 14 122 -10 3 2 5 27 6 30 0 40 -2 31 -8 -8
-5 -33 -63 -56 -128 -26 -74 -47 -119 -57 -121 -11 -2 -26 27 -57 110 -25 67
-51 120 -64 130 -21 17 -21 18 38 17 33 -1 52 -3 43 -6z m-1218 -152 c0 -77 2
-90 18 -94 9 -3 -8 -5 -38 -5 -30 0 -47 2 -37 5 14 4 17 17 17 84 0 68 -2 79
-17 80 -15 0 -15 2 2 9 51 22 55 16 55 -79z m204 77 c-4 -6 -32 -45 -62 -87
l-54 -76 38 -3 c32 -3 42 1 61 25 23 29 27 25 17 -14 -6 -21 -12 -23 -86 -23
l-79 0 55 79 c31 43 56 84 56 90 0 19 -49 12 -70 -9 -25 -25 -30 -25 -30 -2 0
29 8 32 87 32 54 0 72 -3 67 -12z m131 -50 c-25 -35 -52 -75 -60 -90 -15 -28
-15 -28 15 -28 39 0 70 16 70 35 0 8 5 15 10 15 9 0 4 -46 -5 -58 -1 -2 -37
-2 -78 0 l-76 3 54 79 c30 43 52 83 49 87 -10 17 -45 8 -69 -17 l-25 -27 0 32
0 31 81 0 80 0 -46 -62z m193 46 c12 -8 22 -26 22 -40 0 -23 -3 -24 -60 -24
l-60 0 0 -30 c0 -42 34 -74 68 -65 15 4 35 14 45 22 9 9 17 11 17 5 0 -19 -43
-42 -81 -42 -53 0 -80 26 -86 82 -5 42 -3 50 25 78 34 34 74 39 110 14z m108
2 c5 -12 10 -12 34 2 33 19 58 6 46 -24 -6 -16 -8 -16 -21 2 -15 18 -16 18
-35 -5 -27 -32 -29 -137 -2 -144 9 -3 -8 -5 -38 -5 -30 0 -47 2 -37 5 14 4 17
17 17 84 0 68 -2 79 -17 80 -15 0 -15 2 2 9 30 13 45 12 51 -4z m164 -75 c0
-77 2 -90 18 -94 9 -3 -8 -5 -38 -5 -42 -1 -50 1 -32 8 20 9 22 16 22 81 0 65
-2 71 -22 77 -23 6 -23 6 2 13 50 14 50 14 50 -80z m178 73 c19 -13 22 -24 22
-85 0 -56 3 -69 16 -69 8 0 12 -4 9 -10 -8 -14 -42 -13 -47 1 -3 9 -9 9 -25 0
-47 -25 -93 -8 -93 34 0 28 31 56 72 64 25 6 32 12 30 27 -2 10 -10 26 -18 34
-14 13 -18 12 -38 -12 -26 -33 -36 -35 -36 -8 0 38 67 53 108 24z m562 -4 c11
-11 20 -29 20 -40 0 -18 -7 -20 -60 -20 l-60 0 0 -30 c0 -31 30 -70 53 -70 6
0 27 9 45 20 17 11 32 16 32 10 0 -18 -45 -40 -83 -40 -53 0 -87 35 -87 90 0
79 90 130 140 80z m108 8 c8 -8 15 -8 26 1 24 20 69 9 83 -19 7 -14 13 -53 13
-87 0 -40 4 -63 13 -66 6 -3 -10 -5 -38 -5 -27 0 -42 2 -32 5 15 4 17 15 15
81 -3 72 -5 77 -26 80 -40 6 -52 -14 -52 -88 0 -45 4 -70 13 -73 6 -3 -8 -5
-33 -5 -25 0 -39 2 -32 5 8 3 12 30 12 84 0 68 -2 79 -17 80 -15 0 -15 2 2 9
28 12 39 12 53 -2z m300 -4 c12 -8 22 -26 22 -40 0 -23 -3 -24 -60 -24 l-60 0
0 -30 c0 -42 34 -74 68 -65 15 4 35 14 45 22 9 9 17 11 17 5 0 -19 -43 -42
-81 -42 -53 0 -80 26 -86 82 -5 42 -3 50 25 78 34 34 74 39 110 14z m202 10
c0 -3 -23 -37 -51 -76 -67 -93 -69 -98 -28 -98 39 0 51 7 67 35 10 18 11 17
12 -12 l0 -33 -80 0 c-44 0 -80 2 -80 4 0 3 25 41 56 85 45 65 52 82 40 87
-26 10 -62 -4 -74 -28 -10 -22 -11 -21 -11 10 l-1 32 75 0 c41 0 75 -3 75 -6z
m90 -83 c0 -77 2 -90 18 -94 9 -3 -8 -5 -38 -5 -30 0 -47 2 -37 5 14 4 17 17
17 84 0 68 -2 79 -17 80 -15 0 -15 2 2 9 51 22 55 16 55 -79z m168 73 c19 -13
22 -24 22 -80 0 -48 4 -66 15 -70 8 -4 15 -10 15 -15 0 -13 -48 -11 -52 2 -3
9 -9 9 -25 0 -47 -25 -93 -8 -93 34 0 28 28 53 68 61 38 8 46 17 37 43 -10 33
-38 35 -62 5 -20 -26 -23 -26 -29 -10 -15 40 60 61 104 30z m979 -213 c15 -19
19 -32 12 -42 -8 -12 -10 -12 -19 1 -8 12 -10 11 -10 -7 0 -28 -14 -37 -30
-18 -7 9 -10 25 -5 42 5 21 8 24 16 12 5 -9 9 -9 9 -2 0 6 -5 15 -10 18 -11 7
-4 25 8 24 4 0 17 -13 29 -28z m-127 -7 c0 -8 -4 -12 -10 -9 -5 3 -10 10 -10
16 0 5 5 9 10 9 6 0 10 -7 10 -16z m-2695 -104 c3 -5 1 -10 -4 -10 -6 0 -11 5
-11 10 0 6 2 10 4 10 3 0 8 -4 11 -10z m587 -101 c6 -4 -8 -7 -31 -7 -35 -1
-42 3 -47 24 -7 26 10 54 31 54 7 0 16 10 21 23 6 17 8 9 11 -33 2 -30 9 -57
15 -61z m570 43 l3 -52 -32 0 c-22 0 -36 6 -43 20 -14 26 3 60 30 60 14 0 20
7 20 22 0 44 18 2 22 -50z m-1197 28 c0 -19 -6 -26 -23 -28 -28 -4 -41 -30
-21 -43 10 -6 7 -9 -11 -9 -24 0 -25 3 -25 55 l0 56 40 -3 c35 -3 40 -6 40
-28z m45 -35 c0 -43 12 -44 41 -3 l23 31 -22 -5 c-12 -4 -22 -2 -22 3 0 5 32
9 71 9 l71 0 -26 -35 c-26 -33 -26 -35 -7 -35 12 0 21 4 21 9 0 5 14 14 30 21
33 14 41 35 10 27 -11 -3 -20 -1 -20 5 0 5 12 8 27 6 23 -2 29 -9 34 -40 l6
-37 -131 0 -131 -1 0 40 c0 25 5 40 13 40 7 0 12 -14 12 -35z m402 -6 c2 -27
0 -39 -9 -39 -8 0 -13 13 -13 36 0 24 -4 34 -12 31 -7 -2 -13 -18 -12 -35 0
-18 -5 -32 -11 -32 -7 0 -9 14 -7 35 3 28 1 35 -13 35 -14 0 -16 -7 -13 -35 3
-27 0 -35 -12 -35 -11 0 -15 11 -15 40 l0 39 57 0 56 -1 4 -39z m79 0 c5 -35
5 -36 -28 -37 -26 -1 -33 3 -33 18 0 10 9 22 20 25 11 3 20 11 20 16 0 6 -9 7
-21 4 -15 -5 -19 -4 -14 5 4 6 17 10 28 8 16 -2 23 -12 28 -39z m174 30 c4 -6
4 -13 0 -17 -3 -3 -10 0 -15 8 -7 11 -12 12 -21 3 -18 -18 -6 -48 18 -47 12 0
20 -3 17 -8 -15 -23 -64 1 -64 32 0 33 50 55 65 29z m79 -19 c-2 -24 2 -30 17
-30 24 0 37 -29 18 -41 -8 -5 -23 -8 -34 -7 -17 3 -20 10 -18 48 2 61 2 60 11
60 5 0 7 -13 6 -30z m48 21 c-8 -4 -13 -11 -13 -15 2 -17 0 -26 -6 -26 -5 0
-8 11 -8 25 0 18 5 25 20 25 15 0 17 -3 7 -9z m91 -11 l14 -21 6 21 c4 16 12
21 33 18 34 -4 53 -31 38 -55 -15 -24 -55 -29 -70 -9 -10 14 -13 15 -24 1 -18
-21 -57 -19 -70 5 -25 47 42 84 73 40z m182 -20 c0 -29 -4 -36 -23 -38 -43 -6
-69 37 -40 66 7 7 24 12 38 10 21 -3 25 -8 25 -38z m1925 20 c0 -5 -4 -10 -10
-10 -5 0 -10 5 -10 10 0 6 5 10 10 10 6 0 10 -4 10 -10z m-584 -98 c-28 -6
-17 -22 13 -20 34 2 61 -17 61 -43 0 -11 4 -19 10 -19 13 0 1 -27 -15 -34 -9
-3 -12 0 -9 9 3 7 -4 18 -15 25 -12 6 -21 18 -21 28 0 13 -2 14 -9 3 -5 -7
-14 -10 -20 -7 -6 4 -9 11 -6 16 3 4 -3 6 -14 3 -23 -6 -38 15 -17 23 21 8 20
42 -1 68 -10 12 -1 5 20 -14 28 -26 34 -36 23 -38z m294 18 c0 -5 14 -8 30 -6
29 3 40 -7 20 -19 -6 -4 -3 -16 9 -31 22 -27 18 -57 -7 -52 -8 2 -17 14 -19
28 -2 14 -13 32 -25 41 -22 17 -33 49 -17 49 5 0 9 -4 9 -10z m-404 -87 c-4
-4 -14 1 -22 11 -22 31 -17 43 8 19 12 -13 18 -26 14 -30z m54 17 c0 -13 -11
-13 -30 0 -12 8 -11 10 8 10 12 0 22 -4 22 -10z m361 -36 l8 -29 -19 24 c-22
26 -26 45 -8 39 7 -3 15 -18 19 -34z m-44 -35 c57 -61 69 -84 42 -86 -16 -2
-17 1 -8 19 9 18 8 19 -10 13 -16 -5 -19 -3 -15 8 3 10 -10 25 -37 43 -45 31
-60 54 -36 54 9 0 37 -23 64 -51z m-372 5 c1 -25 -3 -28 -21 -16 -8 5 -8 15
-3 31 11 28 24 20 24 -15z m-322 -2 c-24 -19 -53 -80 -46 -99 2 -6 -1 -14 -6
-18 -7 -4 -11 8 -11 31 0 29 8 46 32 71 18 18 37 33 42 33 6 0 1 -8 -11 -18z
m479 -34 c-3 -14 -7 -16 -18 -7 -20 16 -17 28 5 26 12 -1 17 -7 13 -19z m-35
-33 c-4 -8 -14 -14 -24 -14 -17 1 -17 2 0 6 9 2 17 12 17 20 0 9 3 14 6 10 4
-3 4 -13 1 -22z m347 0 c-6 -16 -24 -21 -24 -7 0 11 11 22 21 22 5 0 6 -7 3
-15z m190 -60 c18 -38 15 -55 -11 -55 -12 0 -13 3 -4 14 9 11 9 23 -3 50 -19
46 -4 38 18 -9z m47 8 c-12 -20 -14 -14 -5 12 4 9 9 14 11 11 3 -2 0 -13 -6
-23z m-676 -33 c3 -5 1 -10 -4 -10 -6 0 -11 5 -11 10 0 6 2 10 4 10 3 0 8 -4
11 -10z m-2170 -90 c3 -5 -1 -10 -10 -10 -9 0 -13 5 -10 10 3 6 8 10 10 10 2
0 7 -4 10 -10z m535 -20 c0 -5 -5 -10 -11 -10 -5 0 -7 5 -4 10 3 6 8 10 11 10
2 0 4 -4 4 -10z m102 -101 c6 -4 -8 -7 -31 -7 -35 -1 -42 3 -47 24 -7 26 10
54 31 54 7 0 16 10 21 23 6 17 8 9 11 -33 2 -30 9 -57 15 -61z m-587 84 c12
-11 15 -25 11 -47 -7 -35 -21 -46 -56 -46 -34 0 -50 17 -50 55 0 17 5 36 12
43 17 17 64 15 83 -5z m241 -8 c9 -8 11 -15 5 -15 -15 0 -14 -57 2 -63 6 -3 2
-6 -9 -6 -18 -1 -23 6 -26 38 -5 61 2 73 28 46z m134 5 c0 -5 9 -10 20 -10 11
0 20 5 20 10 0 6 6 5 14 -2 8 -7 10 -14 5 -16 -14 -5 -11 -60 4 -66 6 -3 3 -5
-8 -3 -15 2 -21 11 -23 35 -4 42 -32 44 -32 3 0 -16 6 -32 13 -34 6 -3 2 -6
-9 -6 -18 -1 -23 6 -26 38 -2 22 -2 45 0 50 5 14 22 14 22 1z m-275 -45 c0
-22 -6 -33 -23 -40 -12 -5 -20 -16 -17 -22 2 -8 -3 -13 -13 -13 -14 0 -17 10
-17 55 l0 56 35 -3 c32 -3 35 -6 35 -33z m90 -5 c0 -29 -4 -36 -23 -38 -16 -2
-22 -8 -18 -18 3 -9 -1 -14 -12 -14 -14 0 -17 10 -17 55 l0 56 35 -3 c33 -3
35 -5 35 -38z m96 17 c-12 -31 1 -51 28 -44 12 3 19 1 15 -4 -9 -16 -53 -10
-62 9 -11 19 2 62 17 62 7 0 7 -8 2 -23z m47 5 c6 -18 -15 -14 -22 4 -4 10 -1
14 6 12 6 -2 14 -10 16 -16z m154 -22 c3 -31 0 -40 -12 -40 -11 0 -15 11 -15
40 0 23 5 40 11 40 7 0 14 -18 16 -40z m138 19 c-17 -31 -5 -50 31 -47 28 2
30 5 27 34 -4 30 -2 32 29 32 18 0 33 -4 33 -9 0 -6 -8 -9 -17 -7 -14 2 -18
-4 -18 -29 0 -30 -1 -31 -47 -31 -37 -1 -50 3 -58 19 -12 21 2 59 21 59 6 0 6
-8 -1 -21z m44 6 c3 -8 1 -15 -3 -15 -5 0 -11 7 -15 15 -3 8 -1 15 3 15 5 0
11 -7 15 -15z m2036 -129 c0 -2 -9 -6 -20 -9 -11 -3 -20 -1 -20 4 0 5 9 9 20
9 11 0 20 -2 20 -4z m-3320 -78 l11 -33 14 33 c22 51 44 42 38 -15 -3 -36 -2
-44 6 -33 6 8 11 23 11 33 0 9 4 17 10 17 5 0 7 7 4 15 -4 9 0 15 9 15 11 0
18 -14 23 -45 3 -25 11 -45 16 -45 6 0 8 14 6 30 -4 28 -3 30 29 30 18 0 33
-4 33 -9 0 -5 11 -4 25 2 14 7 23 18 20 25 -2 7 4 12 15 12 17 0 20 -7 20 -42
0 -23 3 -38 7 -34 4 4 8 15 8 24 0 10 9 18 23 20 18 3 23 -3 29 -30 l7 -33 6
30 c4 26 10 30 40 33 26 2 31 0 20 -8 -8 -5 -11 -10 -6 -10 6 0 5 -5 -1 -11
-9 -9 -9 -16 0 -31 10 -15 9 -21 -3 -28 -21 -14 -36 -12 -54 5 -9 10 -34 15
-73 15 -34 0 -64 5 -72 13 -10 10 -12 9 -9 -2 2 -11 -16 -14 -89 -15 l-92 -2
5 26 c4 25 4 25 -7 3 -7 -13 -16 -23 -21 -23 -5 0 -13 10 -18 23 -10 22 -10
22 -7 -3 1 -15 -3 -25 -11 -25 -10 0 -14 16 -16 53 -1 43 2 52 15 52 10 0 22
-13 29 -32z m636 21 c3 -6 1 -16 -5 -22 -8 -8 -11 -8 -11 1 0 7 -5 12 -11 12
-8 0 -10 -15 -7 -45 5 -38 3 -45 -12 -45 -15 0 -17 7 -12 45 5 45 -3 56 -26
33 -9 -9 -12 -9 -12 3 0 9 3 19 7 22 11 11 81 8 89 -4z m254 -30 c0 -22 4 -38
9 -35 5 3 7 15 4 27 -5 18 -2 20 23 17 23 -2 30 -9 35 -33 l7 -30 1 33 c1 33
1 33 47 31 43 -3 63 -13 50 -26 -4 -4 -12 -1 -18 5 -14 14 -32 16 -23 3 3 -5
1 -12 -5 -16 -6 -4 -5 -13 3 -26 10 -16 9 -21 -3 -29 -21 -14 -36 -12 -53 5
-10 9 -34 14 -72 14 -31 -1 -59 1 -62 5 -3 3 -14 1 -24 -4 -19 -11 -49 -4 -49
12 0 5 10 7 23 3 21 -6 21 -6 -3 14 -34 28 -42 26 -38 -6 2 -20 -2 -29 -15
-31 -16 -3 -18 0 -12 20 l7 23 -21 -22 c-25 -26 -26 -27 -52 -13 -21 12 -25
40 -7 58 17 17 38 15 60 -5 18 -16 18 -16 12 1 -6 15 -1 17 47 14 48 -3 54 -5
51 -23 -3 -18 -2 -18 13 3 9 12 22 22 30 22 9 0 12 6 9 15 -4 9 0 15 10 15 12
0 16 -10 16 -41z m271 -4 c2 -22 8 -43 14 -47 5 -4 -3 -7 -20 -7 -16 0 -24 3
-17 6 6 2 12 20 12 39 0 20 -5 34 -12 34 -9 0 -8 3 2 10 18 11 18 12 21 -35z
m81 -5 c2 -40 0 -50 -12 -50 -12 0 -15 9 -12 40 3 29 0 40 -9 40 -11 0 -11 3
1 10 25 16 28 12 32 -40z m126 38 c25 -25 11 -88 -19 -88 -37 0 -48 71 -15 92
15 10 20 10 34 -4z m68 4 c36 -23 20 -96 -19 -90 -17 2 -23 11 -25 36 -5 45
17 72 44 54z m192 -4 c17 -17 15 -24 -15 -54 l-28 -26 28 5 c15 2 27 0 27 -4
0 -5 -16 -9 -36 -9 -38 0 -38 6 -1 47 11 12 16 27 12 34 -6 9 -11 8 -21 -5 -7
-10 -15 -13 -18 -7 -4 5 2 14 11 20 23 13 27 13 41 -1z m69 -39 c-3 -24 -1
-40 7 -43 6 -2 -2 -4 -19 -4 -16 0 -24 2 -17 5 6 2 12 20 12 39 0 20 -5 34
-12 34 -9 0 -8 3 2 9 23 15 33 1 27 -40z m136 29 c13 -18 16 -19 16 -7 1 22
30 33 47 18 15 -12 18 -46 8 -73 -8 -21 -40 -20 -54 2 -10 16 -10 16 -20 0
-29 -48 -76 5 -51 58 13 30 34 31 54 2z m-538 -18 c3 -5 -1 -10 -10 -10 -9 0
-13 5 -10 10 3 6 8 10 10 10 2 0 7 -4 10 -10z m455 0 c0 -5 -5 -10 -11 -10 -5
0 -7 5 -4 10 3 6 8 10 11 10 2 0 4 -4 4 -10z m1600 1 c0 -5 -7 -14 -15 -21
-10 -9 -15 -9 -15 -1 0 6 -12 12 -27 12 l-28 1 30 8 c43 11 55 11 55 1z
m-2840 -21 c0 -5 -9 -10 -20 -10 -11 0 -20 5 -20 10 0 6 9 10 20 10 11 0 20
-4 20 -10z m1017 4 c-3 -3 -12 -4 -19 -1 -8 3 -5 6 6 6 11 1 17 -2 13 -5z
m-457 -34 c0 -5 -7 -10 -15 -10 -8 0 -15 5 -15 10 0 6 7 10 15 10 8 0 15 -4
15 -10z m230 0 c0 -5 -4 -10 -10 -10 -5 0 -10 5 -10 10 0 6 5 10 10 10 6 0 10
-4 10 -10z m450 0 c0 -5 -4 -10 -10 -10 -5 0 -10 5 -10 10 0 6 5 10 10 10 6 0
10 -4 10 -10z m-1642 -129 c3 -9 -2 -11 -17 -6 -12 4 -21 2 -21 -4 0 -6 7 -11
15 -11 8 0 15 -4 15 -10 0 -5 -7 -10 -16 -10 -10 0 -14 -7 -12 -22 2 -17 -2
-23 -16 -23 -16 0 -19 7 -18 48 0 26 1 50 1 53 2 11 65 -2 69 -15z m192 -28
c0 -46 12 -54 15 -10 1 16 8 22 26 22 18 0 25 -7 30 -30 7 -30 10 -27 13 10 1
15 9 21 33 23 31 3 32 2 24 -21 -5 -14 -7 -34 -4 -45 7 -27 -32 -40 -56 -18
-10 10 -37 16 -71 16 -30 0 -62 1 -70 2 -8 0 -22 -3 -31 -6 -18 -8 -49 17 -49
40 0 8 -5 14 -11 14 -6 0 -9 -12 -7 -27 2 -19 -2 -29 -12 -31 -12 -2 -15 7
-15 37 l0 40 52 0 c29 -1 55 -5 58 -9 8 -13 53 13 48 27 -3 7 2 13 11 13 12 0
16 -10 16 -47z m292 2 c-4 -36 -2 -45 11 -45 9 0 25 14 37 30 24 34 45 38 72
13 18 -16 18 -16 12 1 -6 15 -2 17 27 16 59 -3 69 -1 63 15 -4 9 0 15 10 15
12 0 16 -10 16 -41 0 -25 4 -38 10 -34 6 4 9 14 8 23 -2 12 4 17 22 17 19 0
26 -6 31 -30 7 -30 10 -27 13 10 1 15 9 21 33 23 32 3 33 3 23 -24 -8 -21 -8
-29 2 -36 10 -6 9 -12 -6 -23 -25 -19 -31 -19 -50 0 -11 11 -32 15 -76 13 -61
-3 -79 6 -80 40 0 6 -5 12 -11 12 -6 0 -9 -12 -7 -27 2 -21 -2 -29 -16 -31
-14 -3 -17 0 -13 12 4 9 2 16 -3 16 -6 0 -10 -4 -10 -9 0 -15 -30 -22 -49 -11
-12 6 -22 5 -28 -1 -12 -12 -79 -8 -75 4 1 4 2 27 2 52 0 37 3 45 19 45 16 0
18 -6 13 -45z m114 32 c4 -4 -7 -7 -25 -7 -18 0 -30 4 -27 8 6 10 42 9 52 -1z
m386 -37 c2 -40 0 -50 -12 -50 -12 0 -15 9 -12 40 3 29 0 40 -9 40 -11 0 -11
3 1 10 25 16 28 12 32 -40z m70 0 c2 -40 0 -50 -12 -50 -12 0 -15 9 -12 40 3
29 0 40 -9 40 -11 0 -11 3 1 10 25 16 28 12 32 -40z m126 38 c25 -25 11 -88
-19 -88 -29 0 -44 46 -24 76 17 27 26 29 43 12z m84 -13 c15 -33 -3 -75 -32
-75 -25 0 -37 42 -21 76 14 31 38 31 53 -1z m177 11 c7 -8 11 -30 9 -48 -2
-25 -8 -34 -25 -36 -33 -5 -50 41 -28 74 18 28 28 30 44 10z m78 -14 c12 -66
12 -72 -8 -72 -11 0 -17 5 -14 10 3 6 -3 10 -14 10 -26 0 -26 4 0 47 22 35 30
36 36 5z m125 9 c11 -18 12 -18 29 2 14 19 19 20 33 8 24 -20 18 -85 -8 -90
-11 -2 -25 5 -33 14 -11 17 -13 17 -19 2 -16 -44 -72 1 -58 46 12 39 37 47 56
18z m-732 -26 c0 -8 -4 -15 -10 -15 -5 0 -10 7 -10 15 0 8 5 15 10 15 6 0 10
-7 10 -15z m195 5 c3 -5 1 -10 -4 -10 -6 0 -11 5 -11 10 0 6 2 10 4 10 3 0 8
-4 11 -10z m460 0 c3 -5 -1 -10 -10 -10 -9 0 -13 5 -10 10 3 6 8 10 10 10 2 0
7 -4 10 -10z m-1155 -20 c0 -5 -9 -10 -20 -10 -11 0 -20 5 -20 10 0 6 9 10 20
10 11 0 20 -4 20 -10z m933 3 c-7 -2 -19 -2 -25 0 -7 3 -2 5 12 5 14 0 19 -2
13 -5z m-433 -33 c0 -5 -4 -10 -10 -10 -5 0 -10 5 -10 10 0 6 5 10 10 10 6 0
10 -4 10 -10z m200 0 c0 -5 -4 -10 -10 -10 -5 0 -10 5 -10 10 0 6 5 10 10 10
6 0 10 -4 10 -10z m450 0 c0 -5 -4 -10 -10 -10 -5 0 -10 5 -10 10 0 6 5 10 10
10 6 0 10 -4 10 -10z m726 -125 c4 -11 24 -41 45 -66 22 -26 39 -49 39 -52 0
-3 25 -32 55 -63 30 -32 55 -62 55 -67 0 -33 -265 187 -276 229 -4 13 -3 45 1
71 l7 47 34 -40 c18 -21 36 -48 40 -59z m961 70 c-19 -14 -47 -10 -47 5 0 9
51 18 60 12 3 -2 -3 -10 -13 -17z m-3007 -65 c12 -7 12 -12 2 -22 -9 -9 -12
-9 -12 0 0 7 -8 12 -17 12 -15 0 -13 -4 7 -20 22 -16 27 -17 41 -4 20 18 43
18 59 -1 25 -30 -13 -75 -48 -56 -11 6 -24 6 -35 0 -22 -13 -57 -2 -57 17 0 8
5 14 10 14 6 0 10 -4 10 -10 0 -5 7 -10 15 -10 24 0 18 19 -10 32 -38 17 -31
54 10 57 6 0 17 -4 25 -9z m76 -3 c4 -4 -7 -7 -25 -7 -18 0 -30 4 -27 8 6 10
42 9 52 -1z m165 -24 c1 -24 3 -29 6 -15 3 15 11 22 29 22 20 0 24 -5 24 -32
0 -17 3 -28 8 -24 4 4 7 18 7 29 0 17 7 23 32 25 32 3 33 3 23 -24 -8 -21 -8
-29 2 -36 10 -6 9 -12 -6 -23 -25 -19 -31 -19 -49 -1 -9 9 -40 16 -78 18 -62
3 -64 4 -67 31 -3 22 1 30 18 34 13 3 19 11 16 19 -3 9 2 14 14 14 16 0 20 -7
21 -37z m241 -13 c2 -40 0 -50 -12 -50 -12 0 -15 9 -12 40 3 29 0 40 -9 40
-11 0 -11 3 1 10 25 16 28 12 32 -40z m75 18 c-3 -11 -2 -31 3 -44 9 -22 7
-24 -18 -23 -15 0 -21 3 -14 6 6 2 12 20 12 39 0 20 -5 34 -12 34 -9 0 -8 3 2
9 20 13 33 3 27 -21z m136 10 c13 -18 16 -19 16 -7 1 22 30 33 47 18 15 -12
18 -46 8 -73 -8 -21 -40 -20 -54 2 -10 16 -10 16 -20 0 -29 -48 -76 5 -51 58
13 30 34 31 54 2z m255 -5 c2 -14 -4 -27 -17 -35 -29 -18 -26 -31 5 -24 17 5
23 3 19 -4 -6 -11 -65 -14 -65 -4 0 3 11 20 25 36 14 16 23 34 19 39 -8 14
-24 11 -24 -6 0 -8 -4 -15 -10 -15 -14 0 -13 13 2 28 18 18 43 10 46 -15z m70
15 c25 -25 11 -88 -19 -88 -37 0 -48 71 -15 92 15 10 20 10 34 -4z m121 -2 c7
-8 11 -30 9 -48 -2 -25 -8 -34 -25 -36 -34 -5 -51 39 -29 73 19 29 29 31 45
11z m83 -11 c15 -33 -3 -75 -32 -75 -25 0 -37 42 -21 76 14 31 38 31 53 -1z
m-1069 -12 c3 -5 7 -21 8 -38 4 -28 2 -30 -31 -32 -36 -2 -36 -1 -35 37 0 37
2 40 27 40 15 0 29 -3 31 -7z m261 -14 c-3 -5 -10 -7 -15 -3 -5 3 -7 10 -3 15
3 5 10 7 15 3 5 -3 7 -10 3 -15z m196 11 c0 -5 -5 -10 -11 -10 -5 0 -7 5 -4
10 3 6 8 10 11 10 2 0 4 -4 4 -10z m455 0 c3 -5 1 -10 -4 -10 -6 0 -11 5 -11
10 0 6 2 10 4 10 3 0 8 -4 11 -10z m-222 -17 c-7 -2 -19 -2 -25 0 -7 3 -2 5
12 5 14 0 19 -2 13 -5z m-423 -33 c0 -5 -7 -10 -15 -10 -8 0 -15 5 -15 10 0 6
7 10 15 10 8 0 15 -4 15 -10z m190 0 c0 -5 -4 -10 -10 -10 -5 0 -10 5 -10 10
0 6 5 10 10 10 6 0 10 -4 10 -10z m460 0 c0 -5 -4 -10 -10 -10 -5 0 -10 5 -10
10 0 6 5 10 10 10 6 0 10 -4 10 -10z m1210 -200 c8 -5 11 -10 5 -10 -5 0 -17
5 -25 10 -8 5 -10 10 -5 10 6 0 17 -5 25 -10z m-1432 -172 l-3 -143 -254 -3
c-179 -2 -258 1 -267 9 -11 9 -14 43 -14 139 0 69 3 130 7 133 3 4 125 7 270
7 l264 0 -3 -142z m1482 -243 c16 -19 1 -19 -24 0 -16 12 -17 15 -4 15 8 0 21
-7 28 -15z"/>
<path d="M1097 6944 c-16 -16 -7 -44 14 -44 15 0 20 5 17 22 -3 22 -19 33 -31
22z"/>
<path d="M1151 6911 c-16 -28 14 -51 36 -28 13 13 14 19 3 31 -17 21 -27 20
-39 -3z"/>
<path d="M723 6893 c-7 -2 -13 -11 -13 -20 0 -10 -6 -12 -20 -8 -23 7 -26 -5
-7 -24 10 -10 9 -11 -5 -6 -15 6 -17 -1 -14 -77 4 -89 24 -161 47 -166 8 -1
23 4 34 11 18 14 18 16 1 62 -18 46 -18 134 -1 178 4 9 3 17 -3 17 -6 0 -8 9
-5 20 6 21 5 21 -14 13z"/>
<path d="M1277 6869 c-3 -12 -2 -31 2 -43 15 -40 12 -122 -4 -164 -14 -35 -15
-45 -5 -58 23 -27 54 -13 69 31 17 50 23 165 9 165 -7 0 -6 5 1 14 8 9 8 16 2
20 -6 4 -8 13 -4 21 6 18 -13 20 -23 3 -5 -7 -10 -4 -15 10 -11 28 -25 28 -32
1z"/>
<path d="M1084 6865 c-7 -18 3 -35 22 -35 20 0 30 30 13 41 -20 12 -29 11 -35
-6z"/>
<path d="M1143 6834 c-3 -8 -1 -20 5 -26 15 -15 43 8 35 28 -7 19 -32 18 -40
-2z"/>
<path d="M1211 6816 c-16 -19 -6 -36 20 -36 15 0 20 6 17 22 -4 27 -21 33 -37
14z"/>
<path d="M1091 6786 c-9 -10 -8 -16 4 -26 19 -16 41 1 32 24 -8 20 -21 20 -36
2z"/>
<path d="M775 6780 c-3 -5 -1 -10 4 -10 6 0 11 5 11 10 0 6 -2 10 -4 10 -3 0
-8 -4 -11 -10z"/>
<path d="M1154 6759 c-3 -6 0 -17 7 -25 18 -17 44 -2 36 20 -7 18 -33 21 -43
5z"/>
<path d="M898 6743 c7 -3 16 -2 19 1 4 3 -2 6 -13 5 -11 0 -14 -3 -6 -6z"/>
<path d="M1111 6711 c-17 -11 -7 -41 13 -41 22 0 30 20 15 36 -9 8 -19 10 -28
5z"/>
<path d="M1184 6705 c-4 -9 -2 -21 4 -27 15 -15 44 -1 40 19 -4 23 -36 29 -44
8z"/>
<path d="M1084 6635 c-4 -9 -2 -21 4 -27 15 -15 44 -1 40 19 -4 23 -36 29 -44
8z"/>
<path d="M1154 6635 c-7 -18 3 -35 21 -35 18 0 26 25 12 39 -15 15 -27 14 -33
-4z"/>
<path d="M858 6593 c7 -3 16 -2 19 1 4 3 -2 6 -13 5 -11 0 -14 -3 -6 -6z"/>
<path d="M1087 6566 c-7 -19 18 -40 38 -32 13 4 14 10 5 26 -12 23 -35 26 -43
6z"/>
<path d="M3760 6800 c0 -11 5 -20 10 -20 6 0 10 9 10 20 0 11 -4 20 -10 20 -5
0 -10 -9 -10 -20z"/>
<path d="M3179 6801 c13 -12 28 -21 35 -21 12 0 -5 14 -39 31 -16 8 -15 6 4
-10z"/>
<path d="M3145 6790 c3 -5 11 -10 16 -10 6 0 7 5 4 10 -3 6 -11 10 -16 10 -6
0 -7 -4 -4 -10z"/>
<path d="M1988 5578 c-52 -57 -57 -68 -30 -68 19 0 64 -41 61 -56 -4 -21 2
-26 16 -14 12 10 20 7 46 -21 l31 -34 24 30 c21 27 22 30 6 33 -9 2 -27 13
-39 24 l-22 21 19 27 c22 31 26 80 8 98 -28 28 -70 14 -120 -40z m80 -17 c6
-37 -14 -48 -41 -23 -13 12 -28 19 -33 15 -5 -5 -1 2 9 13 24 29 61 26 65 -5z"/>
<path d="M2334 5610 c-26 -10 -38 -26 -26 -34 5 -3 20 6 32 19 26 27 25 28 -6
15z"/>
<path d="M2241 5550 c-13 -11 -18 -20 -11 -20 18 0 50 20 50 30 0 15 -12 11
-39 -10z"/>
<path d="M2308 5534 c-5 -4 -8 -21 -8 -38 1 -26 2 -28 11 -13 11 19 8 63 -3
51z"/>
<path d="M2180 5495 c0 -8 9 -19 19 -25 28 -15 33 -13 22 9 -13 24 -41 35 -41
16z"/>
<path d="M2745 5490 c-37 -40 7 -100 59 -80 50 19 30 100 -24 100 -9 0 -25 -9
-35 -20z"/>
<path d="M2247 5473 c-3 -5 3 -20 14 -33 l20 -25 -6 25 c-9 30 -21 45 -28 33z"/>
<path d="M2870 5445 c-20 -21 -22 -30 -14 -52 13 -37 47 -47 78 -22 32 25 34
63 4 83 -30 22 -41 20 -68 -9z"/>
<path d="M2300 5401 c0 -17 5 -31 10 -31 6 0 10 11 10 24 0 14 -4 28 -10 31
-6 4 -10 -7 -10 -24z"/>
<path d="M1974 5392 c-18 -12 -36 -53 -30 -68 5 -13 2 -13 -16 1 -28 19 -58
19 -58 0 0 -17 35 -55 50 -55 6 0 10 -7 10 -15 0 -13 -4 -12 -22 5 -26 23 -58
27 -58 5 0 -15 22 -40 56 -63 18 -13 18 -13 -1 -6 -68 23 -84 11 -44 -32 l21
-23 -21 6 c-25 6 -28 -13 -7 -42 12 -17 12 -21 -1 -30 -12 -9 -11 -15 7 -38
18 -22 19 -27 6 -27 -23 0 -19 -26 6 -44 18 -13 19 -16 5 -16 -9 0 -17 -4 -17
-10 0 -17 39 -50 59 -50 11 0 22 -4 25 -8 2 -4 -11 -6 -30 -4 -43 5 -47 -20
-6 -42 20 -12 23 -15 9 -16 -25 0 -17 -21 14 -39 30 -17 71 -9 99 19 24 24 28
75 5 67 -11 -5 -13 0 -8 23 7 37 -10 39 -46 8 -24 -21 -24 -21 2 8 29 33 36
64 13 64 -11 0 -13 9 -9 37 5 29 3 35 -8 28 -11 -6 -12 -5 -1 6 15 17 16 49 0
49 -9 0 -9 3 0 12 15 15 16 48 2 48 -6 0 -3 12 7 27 13 19 14 28 5 31 -8 2 -8
8 4 19 8 9 13 24 11 34 -3 10 1 23 9 30 21 17 17 39 -6 39 -18 0 -19 3 -10 21
18 33 1 60 -26 41z m-64 -262 c0 -5 -2 -10 -4 -10 -3 0 -8 5 -11 10 -3 6 -1
10 4 10 6 0 11 -4 11 -10z m-5 -60 c3 -6 -1 -7 -9 -4 -18 7 -21 14 -7 14 6 0
13 -4 16 -10z m62 -246 c-3 -3 -12 -4 -19 -1 -8 3 -5 6 6 6 11 1 17 -2 13 -5z"/>
<path d="M3146 5393 c-10 -10 -7 -48 5 -60 9 -9 7 -11 -8 -7 -28 8 -39 -13
-19 -35 9 -10 14 -25 11 -33 -3 -8 1 -20 9 -27 7 -6 12 -21 9 -31 -3 -11 0
-26 6 -34 9 -11 9 -15 -1 -18 -10 -4 -10 -10 -1 -31 7 -15 8 -29 3 -32 -6 -3
-6 -15 0 -30 6 -16 5 -25 -3 -28 -9 -3 -9 -11 -1 -34 9 -25 9 -30 -4 -29 -25
2 -24 -20 3 -52 33 -40 32 -48 -2 -14 l-28 27 -3 -33 c-2 -18 -8 -30 -13 -27
-16 10 -21 -22 -8 -47 26 -49 83 -63 128 -31 22 14 22 17 8 28 -15 11 -14 13
8 23 30 14 32 30 4 40 -20 8 -20 8 5 20 25 11 38 52 16 52 -5 0 0 10 12 22 19
19 19 22 5 33 -15 11 -15 13 0 28 20 20 10 49 -13 40 -13 -5 -12 -1 4 15 27
27 30 64 5 55 -17 -6 -17 -5 0 14 20 23 23 53 4 53 -7 0 -23 -7 -35 -16 -12
-8 -22 -11 -22 -6 0 5 11 14 25 20 23 10 44 56 32 68 -3 3 -19 -2 -36 -11 -17
-9 -31 -11 -31 -5 0 5 5 10 10 10 15 0 50 38 50 55 0 22 -36 19 -60 -5 l-20
-20 0 26 c0 43 -35 86 -54 67z m114 -257 c0 -2 -7 -7 -16 -10 -8 -3 -12 -2 -9
4 6 10 25 14 25 6z m-10 -70 c0 -3 -4 -8 -10 -11 -5 -3 -10 -1 -10 4 0 6 5 11
10 11 6 0 10 -2 10 -4z"/>
<path d="M2156 5359 l-18 -31 31 16 c17 9 31 23 31 31 0 26 -25 16 -44 -16z"/>
<path d="M2742 5354 c-39 -27 -19 -94 28 -94 47 0 67 67 28 94 -12 9 -25 16
-28 16 -3 0 -16 -7 -28 -16z"/>
<path d="M2208 5314 c-4 -32 -3 -34 9 -18 15 20 17 54 4 54 -5 0 -11 -16 -13
-36z"/>
<path d="M2852 5298 c-7 -7 -12 -24 -12 -38 0 -34 17 -50 52 -50 27 0 48 23
48 54 0 37 -61 61 -88 34z"/>
<path d="M2262 5289 c-13 -5 -20 -13 -17 -19 6 -10 18 -6 55 20 13 9 13 10 0
9 -8 0 -25 -4 -38 -10z"/>
<path d="M2123 5268 c-13 -6 -23 -17 -23 -24 0 -18 34 -6 48 17 14 21 8 23
-25 7z"/>
<path d="M2992 5244 c-46 -32 -11 -103 45 -89 46 11 59 58 25 88 -23 21 -41
21 -70 1z"/>
<path d="M2300 5220 c0 -16 2 -30 4 -30 2 0 9 14 15 30 8 24 7 30 -5 30 -9 0
-14 -10 -14 -30z"/>
<path d="M2159 5238 c0 -2 -2 -16 -3 -31 -2 -25 0 -27 11 -11 15 21 17 44 3
44 -5 0 -10 -1 -11 -2z"/>
<path d="M2220 5232 c0 -5 9 -17 20 -27 22 -20 26 -14 10 16 -11 19 -30 26
-30 11z"/>
<path d="M2345 5190 c-3 -5 1 -20 9 -32 l16 -22 0 26 c0 29 -15 45 -25 28z"/>
<path d="M2742 5188 c-7 -7 -12 -24 -12 -38 0 -14 5 -31 12 -38 7 -7 24 -12
38 -12 14 0 31 5 38 12 7 7 12 24 12 38 0 14 -5 31 -12 38 -7 7 -24 12 -38 12
-14 0 -31 -5 -38 -12z"/>
<path d="M2093 5173 c-15 -5 -18 -63 -3 -63 10 0 24 43 18 58 -1 5 -9 7 -15 5z"/>
<path d="M2180 5141 c0 -5 11 -16 25 -25 29 -19 34 -7 7 17 -21 19 -32 22 -32
8z"/>
<path d="M2886 5134 c-22 -22 -20 -57 5 -80 19 -17 23 -17 47 -3 33 18 40 54
16 80 -21 23 -47 24 -68 3z"/>
<path d="M2261 5128 c1 -7 5 -24 9 -38 7 -22 8 -21 9 13 1 20 -3 37 -9 37 -5
0 -10 -6 -9 -12z"/>
<path d="M2140 5084 l-25 -14 29 2 c16 2 31 9 34 16 5 16 -7 15 -38 -4z"/>
<path d="M2330 5090 c0 -5 15 -10 33 -10 24 0 28 3 17 10 -20 13 -50 13 -50 0z"/>
<path d="M2200 5043 c0 -18 38 -59 46 -50 4 4 -4 20 -19 35 -15 14 -27 22 -27
15z"/>
<path d="M2358 5044 c-5 -4 -8 -19 -8 -33 1 -23 2 -24 11 -8 11 19 9 53 -3 41z"/>
<path d="M2125 5010 c-23 -26 -4 -26 26 0 18 15 20 19 8 20 -9 0 -24 -9 -34
-20z"/>
<path d="M2285 5015 c20 -16 37 -16 36 0 0 6 -13 11 -28 13 -27 2 -27 2 -8
-13z"/>
<path d="M2777 5012 c-24 -27 -21 -59 8 -78 23 -15 27 -15 50 0 29 19 33 56 9
80 -21 21 -47 20 -67 -2z"/>
<path d="M2934 5006 c-15 -24 -15 -28 0 -51 33 -50 110 -14 90 43 -14 39 -66
44 -90 8z"/>
<path d="M2169 4961 c-13 -11 -20 -23 -16 -27 4 -4 20 4 35 19 30 31 16 37
-19 8z"/>
<path d="M2280 4941 c-12 -24 -14 -59 -1 -45 10 10 24 64 17 64 -3 0 -10 -9
-16 -19z"/>
<path d="M2337 4943 c-12 -11 -8 -23 7 -23 7 0 19 7 26 15 10 12 9 15 -7 15
-11 0 -23 -3 -26 -7z"/>
<path d="M2210 4923 c1 -4 7 -19 16 -33 l14 -25 -2 29 c-2 16 -9 31 -15 34 -7
2 -13 0 -13 -5z"/>
<path d="M2160 4880 c20 -13 40 -13 40 0 0 6 -12 10 -27 10 -22 0 -25 -2 -13
-10z"/>
<path d="M2335 4874 c-19 -15 -19 -15 9 -12 16 2 31 9 34 16 5 17 -19 15 -43
-4z"/>
<path d="M2736 4874 c-24 -24 -20 -61 9 -80 23 -15 27 -15 50 0 42 28 24 96
-25 96 -10 0 -26 -7 -34 -16z"/>
<path d="M2876 4874 c-24 -24 -20 -61 9 -80 23 -15 27 -15 50 0 42 28 24 96
-25 96 -10 0 -26 -7 -34 -16z"/>
<path d="M2260 4845 c0 -7 13 -15 30 -17 22 -3 27 -2 19 8 -15 18 -49 24 -49
9z"/>
<path d="M2187 4808 c-8 -55 8 -54 19 0 4 19 2 32 -4 32 -5 0 -12 -15 -15 -32z"/>
<path d="M2260 4780 l-25 -7 28 -8 c30 -8 47 0 31 14 -5 4 -20 5 -34 1z"/>
<path d="M2328 4758 l-5 -32 18 23 c23 28 24 41 5 41 -8 0 -16 -14 -18 -32z"/>
<path d="M2752 4734 c-41 -28 -19 -94 32 -94 30 0 46 18 46 51 0 24 -30 59
-50 59 -3 0 -16 -7 -28 -16z"/>
<path d="M2975 4720 c-20 -21 -24 -30 -13 -30 17 0 42 -47 28 -52 -5 -2 -7
-13 -4 -25 3 -12 12 -19 19 -17 16 7 34 -45 28 -79 -6 -32 16 -37 38 -10 12
14 12 16 0 8 -10 -5 -12 -4 -7 4 4 6 11 9 15 6 5 -2 16 4 26 15 17 19 17 20
-3 20 -11 0 -24 5 -27 10 -4 6 -11 8 -16 5 -5 -3 -6 1 -3 9 3 9 17 16 30 16
17 0 24 6 24 20 0 11 7 20 15 20 8 0 15 -7 15 -16 0 -10 7 -14 18 -12 9 2 16
10 15 16 -2 7 3 11 10 10 6 -2 11 5 11 14 -1 10 2 15 7 13 4 -3 13 3 18 14 10
17 7 19 -42 17 -44 -1 -52 2 -51 17 2 19 -40 25 -51 7 -8 -13 -46 -3 -61 16
-9 11 -16 8 -39 -16z m86 -60 c19 0 8 -18 -14 -22 -17 -3 -23 0 -23 14 0 12 5
17 14 13 7 -3 18 -5 23 -5z"/>
<path d="M2265 4730 c-3 -5 8 -16 25 -25 30 -16 31 -16 21 3 -12 23 -38 35
-46 22z"/>
<path d="M2355 4727 c-4 -8 -5 -26 -3 -39 4 -22 5 -22 17 6 8 20 8 33 2 39 -7
7 -12 5 -16 -6z"/>
<path d="M2074 4009 c-8 -14 11 -33 25 -25 6 4 11 14 11 22 0 16 -26 19 -36 3z"/>
<path d="M2340 4040 c-15 -28 -3 -60 21 -60 24 0 33 21 25 55 -8 30 -31 33
-46 5z"/>
<path d="M1270 3720 c0 -57 12 -68 57 -53 23 8 29 16 31 48 4 43 -7 55 -55 55
-33 0 -33 0 -33 -50z"/>
<path d="M1936 3688 c-23 -33 -20 -38 25 -38 38 0 40 1 37 28 -4 36 -40 42
-62 10z"/>
<path d="M2402 3614 c-45 -31 -17 -79 34 -56 18 9 24 19 24 42 0 35 -21 40
-58 14z"/>
<path d="M2946 3688 c-23 -33 -20 -38 25 -38 38 0 40 1 37 28 -4 36 -40 42
-62 10z"/>
<path d="M3356 3688 c-23 -33 -20 -38 25 -38 38 0 40 1 37 28 -4 36 -40 42
-62 10z"/>
<path d="M3830 3612 c-17 -13 -21 -24 -16 -40 14 -42 76 -19 76 28 0 36 -25
40 -60 12z"/>
<path d="M2587 3333 c-13 -13 -7 -53 8 -53 10 0 15 10 15 30 0 29 -9 38 -23
23z"/>
<path d="M3154 3325 c-8 -21 3 -48 19 -43 19 7 22 58 2 58 -8 0 -18 -7 -21
-15z"/>
<path d="M1967 3350 c3 -11 12 -20 19 -20 8 0 14 9 14 20 0 13 -7 20 -19 20
-14 0 -18 -5 -14 -20z"/>
<path d="M2118 3308 l-19 -28 20 0 c12 0 21 5 21 11 0 5 4 8 9 5 5 -3 16 5 25
19 16 24 16 25 -10 23 -15 -2 -34 -14 -46 -30z"/>
<path d="M2247 3303 c-12 -11 -8 -23 8 -23 8 0 15 7 15 15 0 16 -12 20 -23 8z"/>
<path d="M2500 3295 c0 -8 5 -15 10 -15 6 0 10 7 10 15 0 8 -4 15 -10 15 -5 0
-10 -7 -10 -15z"/>
<path d="M2790 3265 c0 -8 7 -15 15 -15 8 0 15 7 15 15 0 8 -7 15 -15 15 -8 0
-15 -7 -15 -15z"/>
<path d="M2874 3326 c-9 -24 4 -48 23 -44 12 2 18 12 18 28 0 29 -32 41 -41
16z"/>
<path d="M2967 3325 c-9 -22 3 -46 22 -43 10 2 16 13 16 28 0 28 -29 40 -38
15z"/>
<path d="M3060 3310 c0 -23 4 -30 20 -30 16 0 20 7 20 30 0 23 -4 30 -20 30
-16 0 -20 -7 -20 -30z"/>
<path d="M2787 2803 c-13 -13 -7 -53 8 -53 10 0 15 10 15 30 0 29 -9 38 -23
23z"/>
<path d="M2184 2826 c-3 -8 -4 -27 -2 -43 2 -20 9 -29 25 -31 30 -4 50 36 34
67 -13 24 -49 28 -57 7z"/>
<path d="M2310 2780 c0 -20 5 -30 15 -30 10 0 15 10 15 30 0 20 -5 30 -15 30
-10 0 -15 -10 -15 -30z"/>
<path d="M2400 2780 c0 -20 5 -30 15 -30 10 0 15 10 15 30 0 20 -5 30 -15 30
-10 0 -15 -10 -15 -30z"/>
<path d="M1735 2580 c-3 -5 -1 -10 4 -10 6 0 11 5 11 10 0 6 -2 10 -4 10 -3 0
-8 -4 -11 -10z"/>
<path d="M1817 2583 c-11 -10 -8 -43 3 -43 6 0 10 11 10 25 0 26 -2 29 -13 18z"/>
<path d="M1883 2574 c-3 -8 -1 -20 6 -27 8 -8 11 -4 11 16 0 30 -7 35 -17 11z"/>
<path d="M1955 2580 c-3 -5 -1 -10 4 -10 6 0 11 5 11 10 0 6 -2 10 -4 10 -3 0
-8 -4 -11 -10z"/>
<path d="M2031 2574 c0 -11 3 -14 6 -6 3 7 2 16 -1 19 -3 4 -6 -2 -5 -13z"/>
<path d="M2028 2523 c7 -3 16 -2 19 1 4 3 -2 6 -13 5 -11 0 -14 -3 -6 -6z"/>
<path d="M2298 2578 c-6 -17 1 -38 13 -38 5 0 9 11 9 25 0 26 -14 34 -22 13z"/>
<path d="M2486 2574 c-4 -10 -2 -22 3 -27 7 -7 13 -5 17 7 4 10 2 22 -3 27 -7
7 -13 5 -17 -7z"/>
<path d="M2555 2580 c-3 -5 -1 -10 4 -10 6 0 11 5 11 10 0 6 -2 10 -4 10 -3 0
-8 -4 -11 -10z"/>
<path d="M2631 2574 c0 -11 3 -14 6 -6 3 7 2 16 -1 19 -3 4 -6 -2 -5 -13z"/>
<path d="M2628 2523 c7 -3 16 -2 19 1 4 3 -2 6 -13 5 -11 0 -14 -3 -6 -6z"/>
<path d="M2974 2606 c-8 -22 -1 -59 14 -64 8 -2 12 9 12 37 0 40 -15 55 -26
27z"/>
<path d="M3057 2614 c-4 -4 -7 -23 -7 -41 0 -42 23 -41 28 1 4 29 -9 52 -21
40z"/>
<path d="M3437 2614 c-4 -4 -7 -23 -7 -41 0 -42 23 -41 28 1 4 29 -9 52 -21
40z"/>
<path d="M3504 2595 c-7 -28 0 -55 16 -55 5 0 10 18 10 40 0 44 -16 54 -26 15z"/>
<path d="M1896 2374 c-4 -10 -2 -22 3 -27 7 -7 13 -5 17 7 4 10 2 22 -3 27 -7
7 -13 5 -17 -7z"/>
<path d="M2041 2374 c0 -11 3 -14 6 -6 3 7 2 16 -1 19 -3 4 -6 -2 -5 -13z"/>
<path d="M1830 2350 c0 -5 6 -10 14 -10 8 0 18 5 21 10 3 6 -3 10 -14 10 -12
0 -21 -4 -21 -10z"/>
<path d="M1970 2349 c0 -5 5 -7 10 -4 6 3 10 8 10 11 0 2 -4 4 -10 4 -5 0 -10
-5 -10 -11z"/>
<path d="M2308 2378 c-6 -17 1 -38 13 -38 5 0 9 11 9 25 0 26 -14 34 -22 13z"/>
<path d="M2440 2366 c0 -14 5 -26 10 -26 6 0 10 9 10 19 0 11 -4 23 -10 26 -6
4 -10 -5 -10 -19z"/>
<path d="M2585 2380 c-3 -5 -1 -10 4 -10 6 0 11 5 11 10 0 6 -2 10 -4 10 -3 0
-8 -4 -11 -10z"/>
<path d="M2510 2349 c0 -5 5 -7 10 -4 6 3 10 8 10 11 0 2 -4 4 -10 4 -5 0 -10
-5 -10 -11z"/>
<path d="M2894 2395 c-7 -28 0 -55 16 -55 5 0 10 18 10 40 0 44 -16 54 -26 15z"/>
<path d="M2977 2414 c-4 -4 -7 -23 -7 -41 0 -42 23 -41 28 1 4 29 -9 52 -21
40z"/>
<path d="M3155 2400 c-7 -23 2 -60 16 -60 5 0 9 18 9 40 0 42 -14 54 -25 20z"/>
<path d="M3230 2381 c-7 -15 -7 -21 0 -21 12 0 25 28 17 36 -3 3 -10 -4 -17
-15z"/>
<path d="M3354 2395 c-7 -28 0 -55 16 -55 5 0 10 18 10 40 0 44 -16 54 -26 15z"/>
<path d="M3426 2396 c-7 -27 1 -56 15 -56 5 0 9 18 9 40 0 44 -14 54 -24 16z"/>
<path d="M2028 2178 c-6 -17 1 -38 13 -38 5 0 9 11 9 25 0 26 -14 34 -22 13z"/>
<path d="M2183 2174 c-3 -8 -1 -20 6 -27 8 -8 11 -4 11 16 0 30 -7 35 -17 11z"/>
<path d="M2255 2180 c-3 -5 -1 -10 4 -10 6 0 11 5 11 10 0 6 -2 10 -4 10 -3 0
-8 -4 -11 -10z"/>
<path d="M2331 2174 c0 -11 3 -14 6 -6 3 7 2 16 -1 19 -3 4 -6 -2 -5 -13z"/>
<path d="M2328 2123 c7 -3 16 -2 19 1 4 3 -2 6 -13 5 -11 0 -14 -3 -6 -6z"/>
<path d="M2647 2214 c-4 -4 -7 -23 -7 -41 0 -42 23 -41 28 1 4 29 -9 52 -21
40z"/>
<path d="M2714 2206 c-8 -22 -1 -59 14 -64 8 -2 12 9 12 37 0 40 -15 55 -26
27z"/>
<path d="M2974 2195 c-7 -28 0 -55 16 -55 5 0 10 18 10 40 0 44 -16 54 -26 15z"/>
<path d="M3095 2200 c-7 -23 2 -60 16 -60 5 0 9 18 9 40 0 42 -14 54 -25 20z"/>
<path d="M3177 2214 c-4 -4 -7 -23 -7 -41 0 -42 23 -41 28 1 4 29 -9 52 -21
40z"/>
<path d="M2117 2183 c-11 -10 -8 -43 3 -43 6 0 10 11 10 25 0 26 -2 29 -13 18z"/>
<path d="M3560 7360 c20 -13 33 -13 25 0 -3 6 -14 10 -23 10 -15 0 -15 -2 -2
-10z"/>
<path d="M4240 3080 c0 -5 5 -10 11 -10 5 0 7 5 4 10 -3 6 -8 10 -11 10 -2 0
-4 -4 -4 -10z"/>
<path d="M4325 3040 c3 -5 10 -10 16 -10 5 0 9 5 9 10 0 6 -7 10 -16 10 -8 0
-12 -4 -9 -10z"/>
<path d="M4510 2890 c0 -5 7 -10 15 -10 8 0 15 5 15 10 0 6 -7 10 -15 10 -8 0
-15 -4 -15 -10z"/>
<path d="M5011 2731 c19 -26 29 -31 54 -28 39 4 39 29 0 38 -16 4 -41 11 -54
15 l-24 7 24 -32z"/>
<path d="M4498 2714 c-9 -8 9 -44 22 -44 14 0 12 13 -3 34 -7 9 -16 14 -19 10z"/>
</g>
</svg>
